<svg width="40" height="50" viewBox="0 0 40 50" fill="none" xmlns="http://www.w3.org/2000/svg">
<path d="M13.3067 42.5696C11.1286 40.4996 10.4928 36.1506 11.4002 33C12.9737 34.9863 15.1539 35.6158 17.4121 35.9707C20.8984 36.519 24.3222 36.314 27.5608 34.6575C27.9312 34.468 28.2736 34.2154 28.6784 33.9603C28.9823 34.8765 29.0614 35.8018 28.9553 36.7435C28.6972 39.0371 27.5993 40.8088 25.853 42.1516C25.1548 42.6889 24.4159 43.169 23.6947 43.6757C21.4791 45.232 20.8797 47.0574 21.7122 49.7128C21.732 49.7775 21.7497 49.8421 21.7944 50C20.6632 49.4737 19.8369 48.7074 19.2073 47.6999C18.5423 46.6364 18.226 45.46 18.2093 44.1875C18.201 43.568 18.201 42.943 18.1209 42.3325C17.9252 40.8439 17.2529 40.1773 15.9865 40.1387C14.6866 40.0996 13.6585 40.9346 13.3858 42.2503C13.365 42.3511 13.3348 42.4508 13.3046 42.5681L13.3067 42.5696Z" fill="#E8DFCB"/>
<path d="M0 33C0 33 6.74958 29.6935 13.518 29.6935L18.6212 13.8099C18.8123 13.0417 19.3701 12.5197 19.9999 12.5197C20.6297 12.5197 21.1876 13.0417 21.3786 13.8099L26.4818 29.6935C34.4979 29.6935 40 33 40 33C40 33 28.5351 1.58977 28.5127 1.52675C28.1836 0.598104 27.6282 0 26.8793 0H13.1218C12.3729 0 11.8398 0.598104 11.4883 1.52675C11.4636 1.5886 0 33 0 33Z" fill="#E8DFCB"/>
</svg>
