<svg width="32" height="50" viewBox="0 0 32 50" fill="none" xmlns="http://www.w3.org/2000/svg">
<g clip-path="url(#clip0_137_67)">
<path d="M16 25C16 20.5918 19.5737 17 24 17C28.4082 17 32 20.5737 32 25C32 29.4082 28.4263 33 24 33C19.5918 33 16 29.4082 16 25Z" fill="#E8DFCB"/>
<path d="M0 41.5C0 36.8163 3.5737 33 8 33H16V41.5C16 46.1837 12.4263 50 8 50C3.5737 50 0 46.2029 0 41.5Z" fill="#E8DFCB"/>
<path d="M16 0.0192744V17H24C28.4082 17 32 13.2029 32 8.5C32 3.81633 28.4263 0 24 0H16V0.0192744Z" fill="#E8DFCB"/>
<path d="M0 8.5C0 13.1837 3.5737 17 8 17H16V0H8C3.5737 0 0 3.79705 0 8.5Z" fill="#E8DFCB"/>
<path d="M0 25C0 29.4082 3.5737 33 8 33H16V17H8C3.5737 17 0 20.5918 0 25Z" fill="#E8DFCB"/>
</g>
<defs>
<clipPath id="clip0_137_67">
<rect width="32" height="50" fill="white"/>
</clipPath>
</defs>
</svg>
