<svg width="160" height="47" viewBox="0 0 160 47" fill="none" xmlns="http://www.w3.org/2000/svg">
<g clipPath="url(#clip0_56_27)">
<path d="M32.8125 19.0134C32.8125 24.142 32.8128 29.1949 32.8123 34.2477C32.8122 35.6995 31.9244 36.5981 30.488 36.5982C21.0679 36.5988 11.6479 36.5988 2.22777 36.5982C0.791106 36.5981 -0.0963181 35.7 -0.0963796 34.2478C-0.0967749 24.9 -0.0967818 15.5523 -0.0963878 6.20452C-0.0963238 4.71398 0.782337 3.85398 2.30386 3.85394C11.6732 3.8537 21.0425 3.8537 30.4118 3.85394C31.9565 3.85398 32.8123 4.71922 32.8124 6.28021C32.8127 10.4993 32.8125 14.7185 32.8125 19.0134ZM9.65425 17.8616C9.6542 17.2069 9.66295 16.5521 9.65186 15.8976C9.63793 15.0756 9.32894 14.772 8.52203 14.7694C7.5351 14.7663 6.54369 14.8244 5.56284 14.7474C4.9433 14.6987 4.76053 14.8845 4.77222 15.4632C4.79509 16.5959 4.806 17.7302 4.76759 18.862C4.74816 19.4346 5.00108 19.6224 5.51605 19.6203C6.35114 19.6169 7.18681 19.6003 8.02122 19.6244C9.1932 19.6584 9.80723 19.565 9.65425 17.8616ZM8.86379 25.6761C9.45171 25.5085 9.70573 25.1553 9.66738 24.5157C9.61471 23.6375 9.66906 22.7534 9.64912 21.8725C9.63266 21.1447 9.30289 20.8375 8.58418 20.8338C7.54654 20.8283 6.506 20.8756 5.47243 20.8105C4.96521 20.7786 4.77648 20.9105 4.7782 21.39C4.78217 22.4981 4.75107 23.6071 4.79119 24.7137C4.8136 25.3319 5.12498 25.719 5.84396 25.6923C6.80437 25.6565 7.76711 25.6826 8.86379 25.6761ZM4.77883 10.7588C4.77893 11.4657 4.80422 12.1737 4.77016 12.8789C4.74795 13.3389 4.96623 13.5414 5.37234 13.5473C6.51375 13.5639 7.66009 13.607 8.79425 13.5149C9.09928 13.4902 9.58518 13.0411 9.61378 12.7504C9.71465 11.7252 9.68899 10.6825 9.63859 9.64987C9.61101 9.08479 9.33793 8.65904 8.63572 8.69767C8.00337 8.73245 7.36757 8.70491 6.7333 8.7049C4.77884 8.70489 4.77884 8.7049 4.77883 10.7588ZM10.8731 30.7318C10.8658 31.2048 10.7671 31.7407 11.5066 31.7441C12.6231 31.7493 13.7413 31.7797 14.8553 31.7275C15.3052 31.7064 15.7458 31.4925 15.7471 30.905C15.7492 29.895 15.7776 28.8838 15.7364 27.8756C15.7112 27.2604 15.414 26.8578 14.6882 26.888C13.827 26.9239 12.963 26.8919 12.1003 26.8977C11.1576 26.9039 10.8752 27.1811 10.8735 28.0875C10.8718 28.9207 10.8731 29.7539 10.8731 30.7318ZM20.222 8.7049C19.4865 8.70503 18.7505 8.69008 18.0155 8.70955C17.2814 8.729 16.9725 9.05367 16.9686 9.7704C16.9638 10.6789 16.9539 11.5877 16.9729 12.4959C16.9841 13.031 17.1498 13.5248 17.793 13.5458C18.8317 13.5796 19.8744 13.5919 20.9116 13.5397C21.4854 13.5109 21.8851 13.2147 21.8515 12.5245C21.8135 11.744 21.8431 10.9602 21.8427 10.1779C21.8421 8.88976 21.6574 8.70563 20.222 8.7049ZM10.8731 17.4161C10.8736 17.845 10.828 18.2804 10.8873 18.7011C10.9504 19.1485 11.0995 19.6087 11.6897 19.6154C12.7292 19.6271 13.7705 19.6509 14.8079 19.6033C15.2559 19.5827 15.7312 19.408 15.7416 18.8255C15.7607 17.7661 15.7819 16.7044 15.7282 15.6473C15.7052 15.1961 15.481 14.7693 14.8926 14.7694C13.8782 14.7697 12.8627 14.74 11.8501 14.7808C11.2276 14.8059 10.8187 15.1125 10.8671 15.8297C10.8992 16.3069 10.8731 16.7881 10.8731 17.4161ZM23.2868 19.3054C23.4511 19.4088 23.6134 19.5979 23.78 19.6017C24.8962 19.6275 26.0183 19.671 27.1267 19.5743C27.418 19.5488 27.8693 19.069 27.8993 18.7639C27.9977 17.7632 27.9618 16.746 27.925 15.7371C27.9069 15.2408 27.7084 14.7844 27.0942 14.7742C26.0791 14.7573 25.0598 14.7209 24.0503 14.7972C23.7137 14.8226 23.1297 15.1596 23.1229 15.3691C23.0816 16.641 23.1744 17.9172 23.2868 19.3054ZM17.0887 25.1303C17.3521 25.3146 17.6062 25.64 17.8807 25.658C18.8663 25.7224 19.8597 25.7078 20.8483 25.6722C21.3427 25.6544 21.8204 25.4752 21.8349 24.8661C21.8596 23.8312 21.8756 22.7937 21.8253 21.7607C21.8037 21.3167 21.6254 20.8466 21.0353 20.838C19.9949 20.8229 18.9525 20.8001 17.9141 20.8488C17.4307 20.8715 16.9638 21.0684 16.969 21.6977C16.9782 22.8077 16.9932 23.9177 17.0887 25.1303ZM24.252 25.6836C25.1401 25.6834 26.0295 25.7129 26.9155 25.6716C27.4315 25.6476 27.9311 25.4896 27.9349 24.8179C27.9406 23.8081 27.9634 22.7972 27.9242 21.7889C27.9049 21.293 27.7011 20.8432 27.0828 20.8364C26.068 20.8253 25.0519 20.8039 24.0386 20.8446C23.4154 20.8696 23.0244 21.1768 23.053 21.8944C23.0892 22.8018 23.0418 23.7122 23.0688 24.6203C23.0879 25.2652 23.3356 25.7467 24.252 25.6836ZM18.5882 31.7474C19.3237 31.7473 20.0597 31.7623 20.7947 31.7428C21.5288 31.7233 21.8377 31.3987 21.8416 30.6819C21.8464 29.7734 21.8563 28.8646 21.8373 27.9565C21.8261 27.4214 21.6603 26.9276 21.0172 26.9066C19.9784 26.8727 18.9358 26.8604 17.8986 26.9126C17.3248 26.9415 16.9251 27.2377 16.9587 27.9279C16.9967 28.7084 16.9671 29.4921 16.9675 30.2745C16.9681 31.5626 17.1528 31.7467 18.5882 31.7474ZM23.0617 28.8017C23.062 29.4577 23.032 30.1157 23.0726 30.7692C23.1033 31.263 23.2813 31.7285 23.8936 31.7407C24.9329 31.7614 25.9747 31.7807 27.0119 31.7297C27.4579 31.7078 27.9253 31.5251 27.9324 30.9376C27.9449 29.9032 27.9708 28.8668 27.9201 27.8347C27.8967 27.3565 27.6991 26.8953 27.0651 26.8965C26.0507 26.8986 25.0349 26.866 24.0224 26.9098C23.4457 26.9347 23.0122 27.2075 23.059 27.8978C23.0761 28.1489 23.0617 28.4022 23.0617 28.8017ZM13.8337 8.7049C13.1743 8.70524 12.5131 8.67536 11.8562 8.71579C11.36 8.74633 10.8921 8.92347 10.8799 9.53265C10.8591 10.5668 10.8397 11.6034 10.8909 12.6354C10.913 13.0791 11.0965 13.5442 11.687 13.5513C12.7266 13.5638 13.7682 13.5895 14.8055 13.5391C15.2862 13.5157 15.7497 13.3191 15.7484 12.6883C15.7463 11.679 15.779 10.6683 15.7351 9.66087C15.71 9.08707 15.4358 8.65564 14.7421 8.70229C14.4897 8.71927 14.2351 8.70494 13.8337 8.7049Z" fill="#E8DFCB"/>
<path d="M117.52 19.0213C118.284 16.9571 119.387 15.1557 121.144 13.9096C124.796 11.3203 129.188 10.9154 133.119 13.6455C133.36 13.8127 133.612 13.9635 134.01 14.2187C134.064 13.7269 134.118 13.3951 134.132 13.0617C134.151 12.6029 134.358 12.3605 134.831 12.3514C137.165 12.3061 136.868 12.2635 136.869 14.1534C136.876 21.1474 136.878 28.1415 136.857 35.1354C136.856 35.548 136.718 36.2653 136.515 36.3149C135.902 36.4641 135.222 36.381 134.575 36.3182C134.462 36.3073 134.332 35.9636 134.298 35.759C134.198 35.1665 134.143 34.5666 134.055 33.8434C133.612 34.1768 133.244 34.4588 132.871 34.7343C129.684 37.0878 126.217 37.6326 122.532 36.1427C120.149 35.1789 118.611 33.3121 117.73 30.9425C116.272 27.0227 116.177 23.0584 117.52 19.0213ZM119.795 26.8279C120.012 27.7086 120.144 28.6206 120.459 29.4648C122.013 33.6255 125.934 35.3281 130.001 33.5004C131.219 32.953 132.222 31.94 133.342 31.1676C133.811 30.8443 133.984 30.4396 133.982 29.8862C133.971 25.9205 133.995 21.9546 133.949 17.9895C133.944 17.5539 133.677 16.9755 133.336 16.7182C132.454 16.0508 131.503 15.4421 130.505 14.9629C128.962 14.2214 127.225 13.926 125.629 14.445C123.804 15.0383 122.359 16.3439 121.315 18.0013C119.622 20.6904 119.422 23.6442 119.795 26.8279Z" fill="#E8DFCB"/>
<path d="M93.1409 36.9016C90.1632 36.957 87.6023 36.0231 85.5131 34.042C83.6248 32.2514 82.4989 29.9786 82.0957 27.418C81.4648 23.4112 81.8327 19.5604 84.2298 16.1043C87.0155 12.0879 91.9869 10.6235 96.468 12.587C98.8197 13.6174 100.167 15.5776 100.98 17.9372C101.683 19.9799 101.739 22.0943 101.672 24.2226C101.651 24.8867 101.264 25.0786 100.671 25.0769C98.7931 25.0713 96.9151 25.0768 95.037 25.0771C91.9661 25.0776 88.8952 25.0753 85.8243 25.0786C84.7971 25.0797 84.7876 25.0897 84.9098 26.0916C85.2433 28.8264 86.2368 31.2235 88.5565 32.8946C90.8835 34.571 93.4618 34.6714 96.1085 33.8948C96.996 33.6344 97.8354 33.1735 98.6526 32.7246C99.5409 32.2366 99.6302 32.2329 100.142 33.0633C100.871 34.2461 101.022 34.4106 99.6018 35.168C97.5948 36.2383 95.4983 36.8867 93.1409 36.9016ZM89.1528 15.0993C88.5249 15.5232 87.7406 15.8268 87.2994 16.3944C86.1313 17.8974 85.2254 19.5632 84.918 21.4894C84.7671 22.4351 84.7907 22.4962 85.7486 22.4978C88.7422 22.5028 91.7358 22.5001 94.7294 22.5C95.871 22.4999 97.0135 22.5209 98.1536 22.4792C98.3765 22.4711 98.7777 22.2213 98.7802 22.0777C98.8164 19.9284 98.3841 17.8793 96.9354 16.2189C95.0887 14.1024 92.1014 13.6939 89.1528 15.0993Z" fill="#E8DFCB"/>
<path d="M148.085 34.8419C145.178 27.6677 142.291 20.5479 139.41 13.4262C139.041 12.515 139.153 12.336 140.12 12.348C142.329 12.3754 141.971 12.016 142.797 14.1755C145.063 20.099 147.333 26.0208 149.603 31.9423C149.69 32.1689 149.801 32.3863 149.901 32.6079C149.971 32.6153 150.042 32.6226 150.112 32.6299C150.463 31.5684 150.808 30.505 151.165 29.4456C152.643 25.0641 154.123 20.6834 155.605 16.3032C155.962 15.25 156.35 14.207 156.679 13.1453C156.854 12.5761 157.158 12.3413 157.77 12.3327C159.922 12.3024 159.966 12.4033 159.234 14.4248C157.893 18.131 156.627 21.8643 155.313 25.5808C153.546 30.5835 151.803 35.5957 149.967 40.5733C149.253 42.5085 148.122 44.2289 146.426 45.4989C144.642 46.8341 142.655 47.1492 140.515 46.5953C139.679 46.3787 139.578 46.19 139.775 45.3564C139.828 45.1351 139.897 44.9174 139.939 44.6943C140.07 44.0009 140.469 43.7559 141.148 43.9569C143.431 44.6336 145.031 43.5917 146.328 41.8735C147.493 40.3308 148.148 38.5395 148.547 36.6832C148.663 36.1433 148.268 35.4945 148.085 34.8419Z" fill="#E8DFCB"/>
<path d="M76.2339 28.7155C76.2335 30.9627 76.2175 33.1343 76.2418 35.3055C76.2496 36.0072 76.0052 36.2997 75.2712 36.3062C73.339 36.3231 73.3392 36.3473 73.3391 34.452C73.3391 28.3417 73.3397 22.2314 73.3385 16.1211C73.3383 14.9359 73.3245 14.925 72.1627 14.9205C71.9343 14.9196 71.7059 14.9206 71.4775 14.9201C70.166 14.9172 70.1219 14.8718 70.1403 13.5465C70.1534 12.6037 70.2283 12.5344 71.1912 12.4907C71.4938 12.4769 71.7946 12.3987 72.0966 12.3963C73.406 12.3856 73.3201 12.2449 73.3441 10.9107C73.3768 9.0965 73.357 7.27486 73.5248 5.47163C73.6624 3.99341 74.2546 2.64468 75.3847 1.58694C76.3141 0.71699 77.419 0.19722 78.6766 0.241376C79.9301 0.285386 81.1905 0.458727 82.4214 0.705541C83.2453 0.870743 83.3278 1.1773 83.0793 1.98667C83.0349 2.13149 82.9849 2.27466 82.9358 2.41804C82.5942 3.41606 82.5006 3.45668 81.5156 3.15837C81.0559 3.01916 80.5887 2.86873 80.1147 2.81807C77.7813 2.56863 76.4527 3.79331 76.271 6.51276C76.1568 8.22223 76.2475 9.945 76.2375 11.6618C76.2343 12.2044 76.542 12.3461 77.0191 12.3432C78.2371 12.3358 79.4556 12.3639 80.673 12.3357C81.3231 12.3207 81.5706 12.5628 81.5769 13.2197C81.593 14.9203 81.6161 14.9201 79.9023 14.9203C79.0141 14.9203 78.1259 14.9156 77.2378 14.922C76.3035 14.9288 76.2371 14.9888 76.2362 15.9141C76.232 20.1559 76.2341 24.3978 76.2339 28.7155Z" fill="#E8DFCB"/>
<path d="M42.5633 12.9494C42.5635 10.1454 42.5603 7.41713 42.5657 4.68892C42.5675 3.77127 42.6356 3.70301 43.5751 3.70481C45.689 3.70885 45.4543 3.50933 45.4556 5.56515C45.4613 14.5329 45.4578 23.5007 45.4585 32.4685C45.4586 33.7155 45.461 33.7173 46.739 33.7176C50.8519 33.7186 54.9647 33.7169 59.0776 33.7188C60.2096 33.7194 60.2334 33.7457 60.2357 34.8615C60.2362 35.1393 60.299 35.4471 60.1997 35.6862C60.1028 35.9198 59.862 36.1288 59.6333 36.2616C59.4794 36.351 59.2368 36.2942 59.0338 36.2942C53.9308 36.2952 48.8278 36.2959 43.7248 36.2943C42.5895 36.2939 42.5644 36.2698 42.5642 35.1541C42.5626 27.7778 42.5633 20.4015 42.5633 12.9494Z" fill="#E8DFCB"/>
<path d="M117.216 13.2592C116.805 14.8512 116.801 14.8741 115.268 14.6139C113.681 14.3448 112.324 14.8224 111.268 15.95C110.412 16.8635 109.628 17.8774 108.998 18.9543C108.612 19.6145 108.416 20.4755 108.407 21.2495C108.355 25.8951 108.382 30.5416 108.38 35.1878C108.379 36.257 108.342 36.2949 107.263 36.2935C105.314 36.2909 105.488 36.4572 105.488 34.5546C105.484 27.5852 105.48 20.6159 105.501 13.6467C105.503 13.2359 105.646 12.5211 105.85 12.4723C106.464 12.3256 107.144 12.4061 107.789 12.4797C107.906 12.4931 108.036 12.8864 108.062 13.1152C108.158 13.9636 108.213 14.8166 108.298 15.8439C108.601 15.4643 108.829 15.19 109.045 14.9067C110.396 13.1335 112.14 11.9882 114.394 11.7951C115.105 11.7341 115.844 11.9375 116.565 12.0583C117.216 12.1677 117.484 12.5444 117.216 13.2592Z" fill="#E8DFCB"/>
<path d="M63.4362 31.141C63.4363 25.2038 63.4354 19.3424 63.4371 13.481C63.4375 12.3688 63.4634 12.3482 64.6012 12.3432C66.3308 12.3356 66.331 12.3356 66.331 14.0868C66.331 21.0346 66.3314 27.9823 66.3306 34.9301C66.3305 36.2803 66.3163 36.2925 64.9828 36.2952C63.4366 36.2982 63.4365 36.2982 63.4362 34.7791C63.436 33.5916 63.4362 32.4042 63.4362 31.141Z" fill="#E8DFCB"/>
<path d="M63.1783 6.81116C63.1047 5.94294 62.9979 5.11773 63.0752 4.30997C63.1011 4.03881 63.5677 3.65387 63.8823 3.59829C64.5189 3.48585 65.1894 3.5537 65.8456 3.56521C66.3247 3.57361 66.607 3.83011 66.6183 4.312C66.6349 5.01502 66.6558 5.72111 66.6043 6.42076C66.5871 6.65403 66.3723 7.05074 66.2156 7.0671C65.2111 7.17199 64.1752 7.47504 63.1783 6.81116Z" fill="#E8DFCB"/>
</g>
<defs>
<clipPath id="clip0_56_27">
<rect width="160" height="47" fill="currentColor"/>
</clipPath>
</defs>
</svg>
