<svg width="50" height="50" viewBox="0 0 50 50" fill="none" xmlns="http://www.w3.org/2000/svg">
<g clip-path="url(#clip0_125_221)">
<path d="M49.9999 23.1481C49.9999 30.9793 50.0003 38.6948 49.9996 46.4103C49.9993 48.6271 48.6505 49.9992 46.4682 49.9993C32.156 50.0002 17.8438 50.0002 3.5316 49.9993C1.34884 49.9992 0.00054939 48.6278 0.000455872 46.4104C-0.000144587 32.1368 -0.000155098 17.8631 0.00044351 3.58951C0.000540732 1.31352 1.33551 0.000340912 3.6472 0.000280727C17.8823 -9.35758e-05 32.1173 -9.35758e-05 46.3524 0.000280727C48.6993 0.000342533 49.9996 1.32152 49.9997 3.70509C50.0001 10.1475 49.9999 16.5899 49.9999 23.1481ZM14.8149 21.3893C14.8148 20.3897 14.8281 19.3898 14.8112 18.3904C14.7901 17.1352 14.3206 16.6716 13.0946 16.6677C11.5952 16.663 10.0889 16.7517 8.59866 16.6341C7.65739 16.5598 7.3797 16.8435 7.39745 17.7272C7.4322 19.4566 7.44878 21.1887 7.39042 22.9169C7.36089 23.7913 7.74518 24.078 8.52758 24.0748C9.79635 24.0696 11.066 24.0443 12.3337 24.0811C14.1144 24.1329 15.0473 23.9903 14.8149 21.3893ZM13.6139 33.3218C14.5071 33.0659 14.8931 32.5266 14.8348 31.5499C14.7548 30.2089 14.8374 28.8589 14.8071 27.5138C14.7821 26.4025 14.281 25.9334 13.1891 25.9277C11.6126 25.9194 10.0316 25.9916 8.4613 25.8922C7.69067 25.8434 7.40393 26.0449 7.40654 26.7771C7.41257 28.469 7.36532 30.1625 7.42628 31.8522C7.46033 32.7962 7.93341 33.3873 9.02578 33.3465C10.485 33.2919 11.9477 33.3317 13.6139 33.3218ZM7.4075 10.5437C7.40766 11.623 7.44607 12.7042 7.39433 13.781C7.36058 14.4834 7.69223 14.7925 8.30923 14.8016C10.0434 14.827 11.7851 14.8928 13.5082 14.7522C13.9717 14.7144 14.7099 14.0287 14.7534 13.5848C14.9066 12.0194 14.8676 10.4271 14.7911 8.85041C14.7492 7.98756 14.3343 7.33746 13.2674 7.39644C12.3066 7.44955 11.3406 7.40749 10.377 7.40748C7.40752 7.40747 7.40752 7.40748 7.4075 10.5437ZM16.6667 41.0416C16.6556 41.7639 16.5056 42.5821 17.6291 42.5873C19.3255 42.5953 21.0244 42.6417 22.717 42.562C23.4006 42.5298 24.07 42.2031 24.0718 41.306C24.0751 39.7639 24.1183 38.2198 24.0556 36.6802C24.0174 35.741 23.5658 35.1261 22.4631 35.1723C21.1546 35.2271 19.8419 35.1782 18.5311 35.187C17.099 35.1966 16.6699 35.6198 16.6672 37.0038C16.6648 38.2761 16.6667 39.5484 16.6667 41.0416ZM30.8708 7.40747C29.7533 7.40768 28.6351 7.38485 27.5184 7.41458C26.403 7.44428 25.9336 7.94003 25.9278 9.03444C25.9204 10.4217 25.9054 11.8094 25.9343 13.1961C25.9512 14.0132 26.2031 14.7672 27.1802 14.7993C28.7585 14.851 30.3426 14.8697 31.9185 14.79C32.7903 14.746 33.3975 14.2937 33.3465 13.2398C33.2887 12.048 33.3338 10.8512 33.3332 9.65664C33.3322 7.68975 33.0516 7.4086 30.8708 7.40747ZM16.6667 20.709C16.6675 21.364 16.5981 22.0288 16.6883 22.6712C16.7841 23.3545 17.0107 24.0572 17.9074 24.0673C19.4868 24.0851 21.0688 24.1215 22.645 24.0488C23.3257 24.0174 24.0477 23.7507 24.0636 22.8611C24.0925 21.2436 24.1248 19.6223 24.0431 18.0083C24.0083 17.3193 23.6676 16.6675 22.7736 16.6678C21.2325 16.6682 19.6896 16.6228 18.151 16.6851C17.2053 16.7234 16.5841 17.1916 16.6575 18.2867C16.7064 19.0154 16.6667 19.7501 16.6667 20.709ZM35.5271 23.5941C35.7767 23.7519 36.0233 24.0406 36.2765 24.0465C37.9723 24.0858 39.6773 24.1523 41.3613 24.0045C41.8039 23.9657 42.4895 23.233 42.5351 22.7672C42.6846 21.2392 42.6301 19.6859 42.5741 18.1453C42.5466 17.3876 42.245 16.6907 41.3118 16.6751C39.7696 16.6493 38.2209 16.5936 36.6871 16.7101C36.1758 16.7489 35.2886 17.2635 35.2782 17.5834C35.2155 19.5256 35.3564 21.4743 35.5271 23.5941ZM26.1102 32.4883C26.5105 32.7698 26.8966 33.2667 27.3135 33.2941C28.811 33.3924 30.3203 33.3701 31.8223 33.3158C32.5735 33.2887 33.2992 33.015 33.3213 32.0849C33.3587 30.5047 33.3831 28.9205 33.3067 27.3431C33.2739 26.6652 33.0029 25.9473 32.1065 25.9342C30.5257 25.9111 28.9419 25.8764 27.3643 25.9507C26.6298 25.9854 25.9204 26.2859 25.9283 27.247C25.9424 28.9419 25.9652 30.6368 26.1102 32.4883ZM36.9937 33.3332C38.3429 33.3329 39.6942 33.3779 41.0404 33.3149C41.8244 33.2782 42.5834 33.0369 42.5892 32.0113C42.5978 30.4694 42.6324 28.9258 42.5729 27.3862C42.5436 26.629 42.2339 25.9421 41.2945 25.9317C39.7528 25.9147 38.2089 25.8821 36.6695 25.9442C35.7225 25.9824 35.1285 26.4516 35.172 27.5472C35.2269 28.9328 35.1549 30.323 35.1959 31.7096C35.225 32.6943 35.6013 33.4295 36.9937 33.3332ZM28.3884 42.5924C29.5059 42.5922 30.6241 42.6151 31.7408 42.5853C32.8562 42.5556 33.3256 42.0599 33.3314 40.9655C33.3388 39.5782 33.3538 38.1905 33.3249 36.8038C33.308 35.9867 33.056 35.2327 32.079 35.2006C30.5007 35.1489 28.9166 35.1302 27.3407 35.2099C26.469 35.254 25.8616 35.7062 25.9127 36.7601C25.9705 37.9519 25.9254 39.1487 25.926 40.3433C25.927 42.3102 26.2076 42.5913 28.3884 42.5924ZM35.1851 38.0944C35.1856 39.0961 35.14 40.1008 35.2018 41.0988C35.2484 41.8527 35.5189 42.5635 36.4491 42.5822C38.0282 42.6138 39.6109 42.6432 41.1868 42.5653C41.8644 42.5319 42.5746 42.253 42.5854 41.3559C42.6044 39.7764 42.6437 38.1939 42.5667 36.6179C42.5311 35.8876 42.2309 35.1833 41.2676 35.1853C39.7264 35.1884 38.1832 35.1387 36.6449 35.2055C35.7687 35.2435 35.1099 35.6602 35.1811 36.7141C35.2071 37.0977 35.1852 37.4844 35.1851 38.0944ZM21.1648 7.40747C20.163 7.40799 19.1584 7.36237 18.1604 7.42411C17.4064 7.47074 16.6956 7.74123 16.677 8.67141C16.6454 10.2505 16.616 11.8333 16.6938 13.4092C16.7273 14.0867 17.0061 14.7969 17.9033 14.8077C19.4828 14.8268 21.0653 14.866 22.6412 14.7891C23.3716 14.7534 24.0758 14.4532 24.0738 13.49C24.0707 11.9488 24.1204 10.4055 24.0536 8.8672C24.0156 7.99103 23.599 7.33227 22.545 7.4035C22.1615 7.42942 21.7747 7.40754 21.1648 7.40747Z" fill="#E8DFCB"/>
</g>
<defs>
<clipPath id="clip0_125_221">
<rect width="50" height="50" fill="white"/>
</clipPath>
</defs>
</svg>
