<svg width="50" height="50" viewBox="0 0 50 50" fill="none" xmlns="http://www.w3.org/2000/svg">
<g clip-path="url(#clip0_125_206)">
<mask id="mask0_125_206" style="mask-type:alpha" maskUnits="userSpaceOnUse" x="0" y="0" width="50" height="50">
<path d="M25 50C38.8071 50 50 38.8071 50 25C50 11.1929 38.8071 0 25 0C11.1929 0 0 11.1929 0 25C0 38.8071 11.1929 50 25 50Z" fill="black"/>
</mask>
<g mask="url(#mask0_125_206)">
<path d="M25 50C38.8071 50 50 38.8071 50 25C50 11.1929 38.8071 0 25 0C11.1929 0 0 11.1929 0 25C0 38.8071 11.1929 50 25 50Z" fill="#E8DFCB"/>
<path d="M41.53 43.7555L19.2061 15H15V34.9917H18.3649V19.2732L38.8886 45.7903C39.8147 45.1705 40.6969 44.4903 41.53 43.7555Z" fill="url(#paint0_linear_125_206)"/>
<path d="M35.2777 15H31.9443V35H35.2777V15Z" fill="url(#paint1_linear_125_206)"/>
</g>
</g>
<defs>
<linearGradient id="paint0_linear_125_206" x1="30.2778" y1="32.3611" x2="40.1389" y2="44.5833" gradientUnits="userSpaceOnUse">
<stop stop-color="#2B2927"/>
<stop offset="1" stop-color="#2B2927" stop-opacity="0"/>
</linearGradient>
<linearGradient id="paint1_linear_125_206" x1="33.611" y1="15" x2="33.5552" y2="29.6875" gradientUnits="userSpaceOnUse">
<stop stop-color="#2B2927"/>
<stop offset="1" stop-color="#2B2927" stop-opacity="0"/>
</linearGradient>
<clipPath id="clip0_125_206">
<rect width="50" height="50" fill="white"/>
</clipPath>
</defs>
</svg>
