<svg width="156" height="31" viewBox="0 0 156 31" fill="none" xmlns="http://www.w3.org/2000/svg">
<g clipPath="url(#clip0_54_315)">
<path d="M103.704 0.0129395H130.877V4.98351H120.098V31.133H114.708V4.98351H103.704V0.0129395Z" fill="#E8DFCB"/>
<path d="M59.0157 0.0129395V4.98351H37.2351V12.9796H54.751V17.9502H37.2351V26.1624H59.0157V31.133H31.8455V4.98351H31.8433V0.0129395H59.0157Z" fill="#E8DFCB"/>
<path d="M72.5835 0.026001H65.5303L90.7936 31.1461H97.8674L85.2342 15.5967L97.8472 0.0497436L90.7936 0.0605465L81.7028 11.2502L72.5835 0.026001Z" fill="#E8DFCB"/>
<path d="M79.8215 22.2552L76.2893 17.9027L65.5103 31.1698H72.5837L79.8215 22.2552Z" fill="#E8DFCB"/>
<path fill-rule="evenodd" clip-rule="evenodd" d="M32.0342 31.133L6.73694 0H0V31.12H5.38956V6.65189L25.2636 31.133H32.0342Z" fill="#E8DFCB"/>
<path d="M132.088 30.943C131.693 30.943 131.357 30.8075 131.076 30.5364C130.795 30.2654 130.656 29.9373 130.66 29.5485C130.656 29.1705 130.795 28.8459 131.076 28.5749C131.357 28.3039 131.693 28.1683 132.088 28.1683C132.468 28.1683 132.8 28.3039 133.081 28.5749C133.366 28.8459 133.508 29.1705 133.512 29.5485C133.508 29.8053 133.442 30.0407 133.311 30.2511C133.176 30.4651 133.004 30.6327 132.789 30.754C132.577 30.8788 132.343 30.943 132.088 30.943Z" fill="#E8DFCB"/>
<path d="M141.287 17.833H143.675V26.9522C143.671 27.7903 143.488 28.5072 143.131 29.1099C142.769 29.7126 142.269 30.1726 141.626 30.4972C140.987 30.8181 140.239 30.9822 139.388 30.9822C138.61 30.9822 137.912 30.8431 137.292 30.5721C136.671 30.3011 136.178 29.8945 135.816 29.3595C135.451 28.8245 135.272 28.1577 135.272 27.3588H137.664C137.668 27.7083 137.748 28.0114 137.901 28.2646C138.055 28.5178 138.266 28.7104 138.537 28.8459C138.81 28.9815 139.125 29.0492 139.479 29.0492C139.862 29.0492 140.191 28.9708 140.458 28.8103C140.724 28.6533 140.929 28.418 141.071 28.1041C141.21 27.7939 141.283 27.4087 141.287 26.9522V17.833Z" fill="#E8DFCB"/>
<path d="M153.502 21.3993C153.444 20.8465 153.188 20.415 152.742 20.1083C152.293 19.798 151.713 19.6447 151 19.6447C150.5 19.6447 150.07 19.7196 149.712 19.8658C149.354 20.0156 149.076 20.2153 148.886 20.4685C148.696 20.7217 148.601 21.0106 148.594 21.3352C148.594 21.6062 148.66 21.8416 148.787 22.0377C148.915 22.2374 149.087 22.405 149.31 22.5406C149.529 22.6797 149.773 22.7938 150.04 22.8865C150.31 22.9792 150.581 23.0577 150.851 23.1219L152.096 23.425C152.596 23.5391 153.082 23.6925 153.546 23.8887C154.009 24.0812 154.43 24.3273 154.798 24.6233C155.167 24.9193 155.459 25.276 155.675 25.6932C155.89 26.1105 156 26.5991 156 27.1626C156 27.9222 155.803 28.5891 155.404 29.1669C155.006 29.741 154.433 30.1904 153.681 30.515C152.932 30.836 152.027 31 150.96 31C149.931 31 149.032 30.8431 148.276 30.5292C147.517 30.219 146.925 29.7624 146.498 29.1633C146.071 28.5642 145.84 27.833 145.808 26.9735H148.174C148.207 27.4229 148.353 27.7974 148.601 28.1005C148.853 28.4001 149.182 28.6212 149.584 28.771C149.989 28.9172 150.442 28.9921 150.942 28.9921C151.464 28.9921 151.924 28.9136 152.322 28.7603C152.717 28.6069 153.027 28.393 153.25 28.1148C153.477 27.8402 153.59 27.5157 153.593 27.1448C153.59 26.806 153.487 26.5242 153.29 26.303C153.089 26.082 152.812 25.8965 152.457 25.7467C152.1 25.597 151.683 25.4614 151.209 25.3437L149.697 24.9657C148.605 24.6911 147.739 24.2738 147.107 23.7139C146.472 23.154 146.158 22.4122 146.158 21.4814C146.158 20.7182 146.37 20.0477 146.797 19.4735C147.221 18.8993 147.802 18.4535 148.536 18.1361C149.273 17.8152 150.106 17.6582 151.033 17.6582C151.976 17.6582 152.801 17.8152 153.513 18.1361C154.225 18.4535 154.784 18.8958 155.189 19.4592C155.594 20.0227 155.806 20.6682 155.817 21.3993H153.502Z" fill="#E8DFCB"/>
</g>
<defs>
<clipPath id="clip0_54_315">
<rect width="156" height="31" fill="currentColor"/>
</clipPath>
</defs>
</svg>
