<svg width="159" height="48" viewBox="0 0 159 48" fill="none" xmlns="http://www.w3.org/2000/svg">
<g clipPath="url(#clip0_54_377)">
<path d="M63.249 36.2309V10.8307H74.095C77.2695 10.8307 79.6473 11.5504 81.2289 12.9897C82.81 14.417 83.6006 16.3462 83.6006 18.7773C83.6006 20.6158 83.1481 22.1761 82.2428 23.4582C81.3375 24.7403 79.9732 25.6535 78.1508 26.1978C79.2489 27.7581 80.3235 29.3789 81.3737 31.0601C82.4239 32.7413 83.4317 34.4649 84.3973 36.2309H79.9614C79.0801 34.5133 78.1508 32.8381 77.173 31.2053C76.2071 29.5724 75.2594 28.0786 74.3301 26.724C74.2577 26.724 74.1792 26.724 74.095 26.724H67.0514V36.2309H63.249ZM73.7328 14.3686H67.0514V23.2587H73.7328C75.7847 23.2587 77.2935 22.8958 78.2594 22.1701C79.2249 21.4322 79.7079 20.3134 79.7079 18.8136C79.7079 17.3138 79.2249 16.201 78.2594 15.4753C77.2935 14.7375 75.7847 14.3686 73.7328 14.3686ZM95.6625 36.6663C93.9243 36.6663 92.3972 36.2671 91.0813 35.4689C89.7777 34.6706 88.7576 33.5578 88.0216 32.1306C87.2973 30.7033 86.9352 29.0523 86.9352 27.1775C86.9352 25.3027 87.2973 23.6517 88.0216 22.2245C88.7576 20.7851 89.7777 19.6663 91.0813 18.8681C92.3972 18.0577 93.9243 17.6525 95.6625 17.6525H96.0608C97.6419 17.6525 99.0302 18.0455 100.225 18.8318C101.432 19.6058 102.374 20.7307 103.05 22.2064C103.726 23.6699 104.064 25.4358 104.064 27.5041V28.6108H90.683C90.9003 30.0985 91.4557 31.2718 92.3488 32.1306C93.2541 32.9772 94.4312 33.4006 95.8797 33.4006H96.2419C97.111 33.4006 97.9439 33.2252 98.7405 32.8744C99.5372 32.5116 100.207 32.0277 100.75 31.423L102.977 33.7816C102.156 34.6645 101.142 35.366 99.9356 35.8861C98.7405 36.4062 97.4487 36.6663 96.0608 36.6663H95.6625ZM95.5538 20.9182C94.2619 20.9182 93.1817 21.3476 92.3126 22.2064C91.4557 23.053 90.9125 24.2142 90.683 25.6898H100.424C100.316 24.3472 99.8749 23.2163 99.1027 22.2971C98.3422 21.3778 97.2798 20.9182 95.9159 20.9182H95.5538ZM113.226 36.5937C111.318 36.5937 109.833 36.1039 108.771 35.1241C107.721 34.1323 107.196 32.8321 107.196 31.2234C107.196 29.6268 107.788 28.2903 108.97 27.2138C110.165 26.1373 112.067 25.5991 114.674 25.5991H119.599V25.5447C119.599 22.4966 118.199 20.9726 115.398 20.9726C114.227 20.9726 113.237 21.1843 112.429 21.6076C111.632 22.031 110.986 22.6236 110.491 23.3857L108.011 21.3718C108.783 20.1744 109.797 19.2551 111.053 18.6141C112.32 17.973 113.757 17.6525 115.362 17.6525H115.761C117.981 17.6525 119.768 18.2935 121.12 19.5756C122.472 20.8577 123.148 22.7748 123.148 25.3269V36.2309H119.671V33.2736C118.971 34.3379 118.072 35.1604 116.973 35.741C115.875 36.3095 114.626 36.5937 113.226 36.5937ZM114.022 33.3643C115.422 33.3643 116.587 33.0498 117.517 32.4208C118.446 31.7798 119.14 30.915 119.599 29.8264V28.4475H114.819C113.394 28.4475 112.374 28.6773 111.759 29.137C111.155 29.5845 110.853 30.1953 110.853 30.9694C110.853 32.566 111.91 33.3643 114.022 33.3643ZM136.069 36.6663C134.331 36.6663 132.792 36.2853 131.452 35.5233C130.113 34.7613 129.062 33.6727 128.302 32.2576C127.553 30.8303 127.179 29.137 127.179 27.1775C127.179 25.206 127.553 23.5127 128.302 22.0975C129.05 20.6702 130.088 19.5756 131.416 18.8136C132.756 18.0395 134.307 17.6525 136.069 17.6525H136.468C137.868 17.6525 139.19 18.0153 140.433 18.7411C141.688 19.4547 142.702 20.4404 143.475 21.6984L140.668 23.6578C140.15 22.8353 139.528 22.1943 138.804 21.7346C138.079 21.2629 137.258 21.0271 136.341 21.0271H135.979C134.41 21.0271 133.172 21.5834 132.267 22.6962C131.374 23.7969 130.927 25.2846 130.927 27.1594C130.927 29.022 131.374 30.5098 132.267 31.6226C133.172 32.7353 134.41 33.2917 135.979 33.2917H136.341C137.258 33.2917 138.103 33.0861 138.876 32.6748C139.648 32.2636 140.312 31.7133 140.868 31.0238L143.475 33.2373C142.666 34.3016 141.646 35.1423 140.415 35.7591C139.196 36.3639 137.88 36.6663 136.468 36.6663H136.069ZM155.596 36.4667C153.447 36.4667 151.812 35.9224 150.69 34.8339C149.567 33.7453 149.006 32.0701 149.006 29.8083V21.2448H145.457V18.0879H149.006V12.6813H152.627V18.0879H158.729V21.2448H152.627V29.3184C152.627 30.7456 152.923 31.7374 153.514 32.2938C154.105 32.8502 154.981 33.1284 156.139 33.1284C156.695 33.1284 157.19 33.1042 157.624 33.0558C158.071 33.0075 158.529 32.947 159 32.8744V36.0494C158.517 36.1704 157.974 36.2671 157.371 36.3397C156.767 36.4244 156.176 36.4667 155.596 36.4667Z" fill="#E8DFCB"/>
<path d="M26.588 18.9174C25.5863 18.9174 24.607 19.2154 23.774 19.7738C22.9411 20.3323 22.2919 21.126 21.9085 22.0547C21.5251 22.9833 21.4248 24.0053 21.6203 24.9911C21.8157 25.977 22.2981 26.8826 23.0065 27.5933C23.7148 28.3041 24.6174 28.7881 25.5999 28.9842C26.5824 29.1803 27.6009 29.0796 28.5264 28.695C29.4519 28.3103 30.2429 27.6589 30.7995 26.8231C31.3561 25.9874 31.6531 25.0048 31.6531 23.9996C31.6531 22.6517 31.1195 21.359 30.1696 20.4059C29.2197 19.4528 27.9314 18.9174 26.588 18.9174Z" fill="#E8DFCB"/>
<path d="M53.176 23.9996C53.176 19.9884 49.4727 16.4704 43.5767 14.1551C43.6555 13.6337 43.7266 13.118 43.7772 12.6116C44.3588 6.84795 42.9745 2.68803 39.881 0.89606C36.4199 -1.10861 31.5312 0.346421 26.588 4.31436C21.6448 0.346421 16.7561 -1.10861 13.2949 0.89606C10.2015 2.68803 8.81701 6.84795 9.39855 12.6116C9.44921 13.118 9.51862 13.6356 9.59929 14.1589C9.1078 14.3471 8.62565 14.5466 8.1623 14.7556C2.89836 17.1292 0 20.4157 0 23.9996C0 28.0108 3.70315 31.5289 9.59929 33.8442C9.51862 34.3656 9.44921 34.8813 9.39855 35.3877C8.81701 41.1513 10.2015 45.3112 13.2949 47.1032C14.3585 47.7082 15.5637 48.0173 16.7861 47.9994C19.7163 47.9994 23.1381 46.4518 26.588 43.6849C30.036 46.4518 33.4596 47.9994 36.3936 47.9994C37.616 48.0173 38.8211 47.7078 39.8848 47.1032C42.9783 45.3112 44.3628 41.1513 43.7812 35.3877C43.7306 34.8813 43.659 34.3656 43.5804 33.8442C49.4766 31.5327 53.1799 28.009 53.1799 23.9996H53.176ZM36.3711 2.54121C37.1571 2.52218 37.934 2.71318 38.6223 3.09463C40.7702 4.33884 41.7345 7.71382 41.2655 12.3537C41.2336 12.67 41.1961 12.99 41.1511 13.3118C38.6994 12.571 36.1889 12.0426 33.6472 11.7326C32.1065 9.67755 30.3931 7.75872 28.5258 5.99715C31.458 3.72329 34.21 2.54121 36.3693 2.54121H36.3711ZM35.3618 29.0819C34.4131 30.7343 33.3799 32.3363 32.2665 33.8818C30.3793 34.0763 28.4833 34.1731 26.5861 34.1717C24.6896 34.173 22.7942 34.0763 20.9076 33.8818C19.7971 32.3363 18.7671 30.7342 17.8216 29.0819C16.8729 27.4341 16.0106 25.7377 15.2384 23.9996C16.0106 22.2615 16.8729 20.5652 17.8216 18.9174C18.7656 17.2717 19.7925 15.6753 20.8982 14.1344C22.7883 13.9351 24.6875 13.8358 26.588 13.837C28.4845 13.8359 30.3799 13.9326 32.2665 14.1269C33.376 15.6702 34.4066 17.2691 35.3543 18.9174C36.3023 20.5655 37.1646 22.2619 37.9375 23.9996C37.1646 25.7374 36.3023 27.4337 35.3543 29.0819H35.3618ZM39.2282 27.1996C39.8236 28.8286 40.3124 30.4949 40.6914 32.1877C39.0464 32.7023 37.3694 33.1079 35.6714 33.4018C36.3167 32.4255 36.942 31.4097 37.5473 30.3544C38.1458 29.3115 38.7067 28.2593 39.2357 27.2071L39.2282 27.1996ZM26.5899 40.3626C25.3208 39.1875 24.1301 37.9299 23.0255 36.598C24.1924 36.6695 25.3836 36.7109 26.5899 36.7109C27.7961 36.7109 28.9948 36.6695 30.1636 36.598C29.0554 37.9298 27.8617 39.1873 26.5899 40.3626ZM17.5064 33.398C15.8079 33.1054 14.1302 32.7011 12.4845 32.1877C12.8621 30.4975 13.349 28.8338 13.9422 27.2071C14.4637 28.2593 15.0227 29.3115 15.6305 30.3544C16.2383 31.3972 16.8667 32.4249 17.5064 33.4018V33.398ZM13.9422 20.7903C13.3511 19.1696 12.8655 17.5122 12.4883 15.8285C14.1299 15.3145 15.8031 14.9077 17.4971 14.6106C16.8555 15.5838 16.227 16.5927 15.6211 17.6449C15.0152 18.6971 14.4618 19.7362 13.9328 20.7903H13.9422ZM26.5786 7.63478C27.8509 8.80957 29.0447 10.0672 30.1523 11.3994C28.9854 11.3279 27.7942 11.2865 26.5786 11.2865C25.373 11.2865 24.1849 11.3241 23.0143 11.3994C24.1189 10.0675 25.3095 8.80992 26.5786 7.63478ZM37.5436 17.6449C36.9358 16.5883 36.3073 15.5719 35.6583 14.5956C37.3608 14.8895 39.0421 15.2957 40.6914 15.8116C40.313 17.5015 39.8261 19.1652 39.2338 20.7922C38.7123 19.7399 38.1514 18.6877 37.5455 17.6468L37.5436 17.6449ZM11.918 12.3556C11.4433 7.71758 12.4132 4.34072 14.5593 3.09651C15.2478 2.71565 16.0246 2.5247 16.8105 2.54309C18.9697 2.54309 21.7217 3.72517 24.6539 5.99903C22.7854 7.76187 21.0708 9.68192 19.5287 11.7382C16.9878 12.0498 14.4775 12.5762 12.0249 13.3118C11.9817 12.99 11.9423 12.6718 11.9123 12.3556H11.918ZM2.53255 23.9996C2.53255 21.5112 4.97131 18.987 9.20156 17.0727C9.49048 16.9472 9.78502 16.8217 10.0852 16.6962C10.6752 19.1942 11.4754 21.6374 12.477 23.9996C11.4735 26.3665 10.6727 28.8149 10.0833 31.3181C5.30333 29.3511 2.53255 26.6255 2.53255 23.9996ZM14.5593 44.9029C12.4132 43.6586 11.4433 40.2817 11.918 35.6437C11.948 35.3274 11.9874 35.0093 12.0305 34.6856C14.4822 35.4262 16.9927 35.9545 19.5344 36.2648C21.0756 38.3206 22.789 40.2406 24.6558 42.004C20.568 45.1722 16.833 46.2166 14.565 44.9029H14.5593ZM41.2636 35.6437C41.7326 40.2836 40.7684 43.6586 38.6204 44.9029C36.3542 46.2205 32.6173 45.1722 28.5315 42.004C30.3976 40.2406 32.1103 38.3205 33.651 36.2648C36.1927 35.9548 38.7031 35.4264 41.1548 34.6856C41.1998 35.0093 41.2373 35.3274 41.2692 35.6437H41.2636ZM43.1039 31.3144C42.5129 28.8125 41.7115 26.3656 40.7083 23.9996C41.711 21.6324 42.5118 19.1842 43.1021 16.6812C47.8728 18.6482 50.6511 21.3738 50.6511 23.9996C50.6511 26.6255 47.8802 29.3511 43.1002 31.3181" fill="#E8DFCB"/>
<path d="M26.5885 29.3402C29.3767 29.3402 31.637 26.9998 31.637 24.1129C31.637 21.2259 29.3767 18.8856 26.5885 18.8856C23.8003 18.8856 21.54 21.2259 21.54 24.1129C21.54 26.9998 23.8003 29.3402 26.5885 29.3402Z" fill="#E8DFCB"/>
<path d="M53.1773 23.9449C53.1773 19.948 49.4736 16.4387 43.5799 14.1362C44.5325 7.8716 43.3457 2.90549 39.8828 0.907011C36.7903 -0.879269 32.5077 -0.00513357 27.823 3.37105C27.4084 3.66877 26.9969 3.98551 26.5854 4.31488C26.177 3.98551 25.7656 3.66877 25.3541 3.37105C20.6694 -0.00513357 16.3868 -0.882436 13.2943 0.907011C9.83459 2.90549 8.6476 7.86841 9.60353 14.1267C3.7034 16.4324 0 19.9448 0 23.9449C0 27.9419 3.7034 31.4511 9.5972 33.7536C8.64446 40.0182 9.83145 44.9845 13.2943 46.9828C14.342 47.5879 15.529 47.8887 16.8204 47.8887C19.3368 47.8887 22.2584 46.7485 25.3541 44.5189C25.7687 44.2212 26.1802 43.9042 26.5917 43.575C27 43.9042 27.4115 44.2212 27.823 44.5189C30.9187 46.7516 33.8403 47.8887 36.3567 47.8887C37.6481 47.8887 38.8351 47.5879 39.8828 46.9828C42.9753 45.1965 44.3584 41.0476 43.7794 35.2992C43.7288 34.7925 43.6621 34.2794 43.5799 33.7568C49.477 31.4542 53.1773 27.945 53.1773 23.9449ZM29.3044 5.42654C31.9379 3.5294 34.3879 2.54126 36.3567 2.54126C37.2081 2.54126 37.9678 2.72496 38.6167 3.09869C40.8831 4.40988 41.8517 8.16932 41.1584 13.2938C38.8794 12.5938 36.3567 12.0586 33.644 11.7165C32.0202 9.5787 30.2983 7.6499 28.5352 6.00296C28.7916 5.80662 29.048 5.61024 29.3044 5.42654ZM14.5604 3.09869C15.2093 2.72496 15.9689 2.54126 16.8204 2.54126C18.7893 2.54126 21.2392 3.52625 23.8727 5.42654C24.1291 5.61024 24.3855 5.80343 24.6419 6.00296C22.8788 7.6499 21.1601 9.5755 19.5362 11.7134C16.8267 12.0554 14.3008 12.5938 12.0218 13.2906C11.3286 8.16932 12.294 4.40988 14.5604 3.09869ZM2.53224 23.9449C2.53224 21.3257 5.30503 18.6051 10.0878 16.6446C10.6228 18.9662 11.4204 21.4207 12.4745 23.9386C11.4141 26.4596 10.6164 28.9174 10.0815 31.2421C5.30503 29.2816 2.53224 26.5642 2.53224 23.9449ZM23.8727 42.4633C20.0997 45.1808 16.7065 46.0293 14.5604 44.7912C12.294 43.4801 11.3255 39.7206 12.0187 34.5961C14.2977 35.296 16.8204 35.8313 19.5331 36.1733C21.1569 38.3111 22.8788 40.24 24.6419 41.8869C24.3855 42.0864 24.1291 42.2796 23.8727 42.4633ZM26.5886 40.2368C23.4233 37.3357 20.3814 33.4591 17.8143 29.0124C17.1274 27.8247 15.7387 24.8393 15.1753 23.6833C14.7258 24.7602 14.2819 25.748 13.9337 26.7995C14.2186 27.3284 15.3169 29.7471 15.6208 30.2761C16.2222 31.3181 16.8521 32.3316 17.501 33.3134C15.6809 32.9935 13.997 32.5818 12.4649 32.0972C13.3354 28.1636 15.0732 23.6282 17.8143 18.8775C18.4885 17.7088 19.9533 15.0994 20.6877 14.0162C19.5292 14.1651 18.5989 14.1158 17.51 14.3406C17.1935 14.8537 15.9247 17.0848 15.6208 17.6138C15.013 18.6653 14.4559 19.7168 13.9337 20.7619C13.3006 19.0232 12.8163 17.3573 12.4713 15.7863C16.3108 14.5733 21.1063 13.81 26.5886 13.81C27.9591 13.81 30.8215 13.7822 32.1003 13.8741C31.3944 12.9461 30.7891 12.1061 30.0515 11.2763C29.4533 11.2573 27.1995 11.2763 26.5886 11.2763C25.3794 11.2763 24.1956 11.3174 23.0339 11.3871C24.1861 10.0157 25.3794 8.76156 26.5886 7.65305C29.7507 10.5542 32.7957 14.4308 35.3628 18.8775C36.037 20.0462 37.4937 22.7667 38.0666 23.9449C38.5193 22.8681 38.9475 21.886 39.2988 20.8282C39.0139 20.2961 37.8602 18.1364 37.5563 17.6106C36.9549 16.5686 36.325 15.5551 35.6761 14.5765C37.4962 14.8963 39.1801 15.3081 40.7121 15.7927C39.8417 19.7263 38.1039 24.2616 35.3628 29.0124C34.6886 30.181 32.7698 32.8573 32.0354 33.9405C33.1939 33.7916 34.4485 33.5691 35.5374 33.3443C35.854 32.8311 37.2525 30.805 37.5563 30.2761C38.1609 29.2309 38.718 28.1858 39.2339 27.1437C39.848 28.835 40.3355 30.4978 40.69 32.1067C36.8536 33.3197 32.0645 34.0799 26.5886 34.0799C25.218 34.0799 22.0313 33.8994 20.7525 33.8076C21.4584 34.7355 22.2187 35.7017 22.9562 36.5315C23.5544 36.5505 25.9777 36.6136 26.5886 36.6136C27.7977 36.6136 28.9815 36.5724 30.1432 36.5027C28.9878 37.8741 27.7977 39.1283 26.5886 40.2368ZM38.6167 44.7912C36.4706 46.0328 33.0743 45.1838 29.3044 42.4633C29.048 42.2796 28.7916 42.0864 28.5352 41.8869C30.2983 40.24 32.017 38.3143 33.6408 36.1765C36.3472 35.8344 38.8668 35.2992 41.1426 34.6024C41.1869 34.9223 41.2312 35.2422 41.2629 35.5557C41.7282 40.1861 40.7628 43.5496 38.6167 44.7912ZM43.0956 31.2452C42.5512 28.8889 41.744 26.4343 40.7026 23.9544C41.763 21.4334 42.5607 18.9757 43.0956 16.6509C47.8719 18.6114 50.645 21.3257 50.645 23.9449C50.645 26.5642 47.8754 29.2816 43.0956 31.2452Z" fill="#E8DFCB"/>
</g>
<defs>
<clipPath id="clip0_54_377">
<rect width="159" height="48" fill="currentColor"/>
</clipPath>
</defs>
</svg>
