<svg width="50" height="50" viewBox="0 0 50 50" fill="none" xmlns="http://www.w3.org/2000/svg">
<path d="M24.9985 19.929C24.0567 19.929 23.136 20.1992 22.3528 20.7055C21.5696 21.2118 20.9593 21.9314 20.5988 22.7734C20.2384 23.6153 20.1441 24.5418 20.3278 25.4356C20.5116 26.3295 20.9652 27.1505 21.6311 27.7949C22.2972 28.4393 23.1457 28.8781 24.0695 29.0559C24.9933 29.2337 25.9508 29.1424 26.821 28.7937C27.6912 28.445 28.4349 27.8544 28.9582 27.0966C29.4815 26.3389 29.7608 25.448 29.7608 24.5367C29.7608 23.3146 29.2591 22.1426 28.366 21.2785C27.4729 20.4144 26.2616 19.929 24.9985 19.929Z" fill="#E8DFCB"/>
<path d="M49.9963 24.5368C49.9963 20.9001 46.5145 17.7105 40.971 15.6114C41.0451 15.1387 41.112 14.6711 41.1596 14.212C41.7064 8.98646 40.4048 5.21493 37.4963 3.59027C34.2421 1.77276 29.6457 3.09194 24.9982 6.68942C20.3506 3.09194 15.7541 1.77276 12.4999 3.59027C9.59147 5.21493 8.2898 8.98646 8.83657 14.212C8.88419 14.6711 8.94945 15.1404 9.0253 15.6148C8.5632 15.7855 8.10988 15.9664 7.67424 16.1558C2.72505 18.3078 0 21.2875 0 24.5368C0 28.1735 3.48172 31.3631 9.0253 33.4622C8.94945 33.9349 8.88419 34.4025 8.83657 34.8616C8.2898 40.0871 9.59147 43.8586 12.4999 45.4833C13.4999 46.0319 14.633 46.3121 15.7824 46.2958C18.5374 46.2958 21.7545 44.8927 24.9982 42.3841C28.24 44.8927 31.4589 46.2958 34.2174 46.2958C35.3668 46.3121 36.4998 46.0315 37.4999 45.4833C40.4084 43.8586 41.7101 40.0871 41.1633 34.8616C41.1157 34.4025 41.0484 33.9349 40.9745 33.4622C46.5181 31.3665 50 28.1718 50 24.5368H49.9963ZM34.1963 5.08181C34.9353 5.06457 35.6658 5.23773 36.3128 5.58357C38.3324 6.71161 39.239 9.77149 38.798 13.9782C38.768 14.2649 38.7328 14.555 38.6904 14.8468C36.3854 14.1752 34.025 13.6962 31.6353 13.415C30.1866 11.5519 28.5757 9.8122 26.8201 8.2151C29.577 6.15354 32.1644 5.08181 34.1946 5.08181H34.1963ZM33.2474 29.1446C32.3553 30.6426 31.384 32.0952 30.3372 33.4963C28.5627 33.6727 26.7801 33.7604 24.9964 33.7591C23.2133 33.7604 21.4312 33.6726 19.6574 33.4963C18.6134 32.0951 17.6449 30.6426 16.756 29.1446C15.864 27.6506 15.0533 26.1126 14.3273 24.5368C15.0533 22.961 15.864 21.423 16.756 19.929C17.6436 18.437 18.609 16.9897 19.6486 15.5926C21.4256 15.4119 23.2113 15.3219 24.9982 15.323C26.7813 15.322 28.5633 15.4097 30.3372 15.5858C31.3803 16.985 32.3493 18.4346 33.2403 19.929C34.1316 21.4233 34.9423 22.9613 35.669 24.5368C34.9423 26.1123 34.1316 27.6503 33.2403 29.1446H33.2474ZM36.8825 27.438C37.4423 28.9149 37.9019 30.4256 38.2583 31.9604C36.7116 32.427 35.1349 32.7947 33.5384 33.0612C34.1452 32.176 34.7331 31.255 35.3022 30.2982C35.8648 29.3528 36.3922 28.3988 36.8896 27.4448L36.8825 27.438ZM24.9999 39.3721C23.8067 38.3066 22.6873 37.1665 21.6487 35.9589C22.7458 36.0238 23.8658 36.0613 24.9999 36.0613C26.134 36.0613 27.2611 36.0238 28.3599 35.9589C27.3181 37.1663 26.1957 38.3065 24.9999 39.3721ZM16.4596 33.0577C14.8626 32.7924 13.2853 32.4259 11.738 31.9604C12.093 30.428 12.5508 28.9196 13.1085 27.4448C13.5988 28.3988 14.1244 29.3528 14.6959 30.2982C15.2673 31.2437 15.8582 32.1755 16.4596 33.0612V33.0577ZM13.1085 21.6271C12.5528 20.1577 12.0962 18.6551 11.7415 17.1285C13.285 16.6626 14.8581 16.2937 16.4508 16.0244C15.8476 16.9067 15.2568 17.8214 14.6871 18.7754C14.1174 19.7294 13.597 20.6714 13.0997 21.6271H13.1085ZM24.9893 9.69983C26.1855 10.7649 27.308 11.9052 28.3494 13.113C27.2523 13.0481 26.1323 13.0106 24.9893 13.0106C23.8558 13.0106 22.7387 13.0447 21.6381 13.113C22.6767 11.9054 23.7962 10.7653 24.9893 9.69983ZM35.2987 18.7754C34.7272 17.8174 34.1363 16.8959 33.5261 16.0107C35.1268 16.2772 36.7076 16.6455 38.2583 17.1132C37.9025 18.6454 37.4447 20.1537 36.8878 21.6288C36.3975 20.6748 35.8701 19.7208 35.3004 18.7771L35.2987 18.7754ZM11.2053 13.9799C10.7591 9.7749 11.671 6.71332 13.6888 5.58527C14.336 5.23997 15.0664 5.06685 15.8053 5.08352C17.8354 5.08352 20.4229 6.15524 23.1797 8.2168C21.423 9.81505 19.8109 11.5558 18.361 13.4202C15.972 13.7026 13.6119 14.1799 11.3059 14.8468C11.2653 14.555 11.2282 14.2666 11.2 13.9799H11.2053ZM2.38111 24.5368C2.38111 22.2807 4.67405 19.9922 8.65135 18.2566C8.923 18.1428 9.19993 18.029 9.48211 17.9153C10.0369 20.18 10.7892 22.3951 11.731 24.5368C10.7874 26.6827 10.0345 28.9025 9.48035 31.172C4.98622 29.3886 2.38111 26.9175 2.38111 24.5368ZM13.6888 43.4884C11.671 42.3604 10.7591 39.2987 11.2053 35.0937C11.2335 34.807 11.2706 34.5186 11.3112 34.225C13.6163 34.8965 15.9766 35.3755 18.3663 35.6569C19.8154 37.5207 21.4263 39.2615 23.1815 40.8602C19.3382 43.7326 15.8264 44.6795 13.6941 43.4884H13.6888ZM38.7962 35.0937C39.2372 39.3004 38.3306 42.3604 36.3111 43.4884C34.1804 44.683 30.667 43.7326 26.8254 40.8602C28.58 39.2614 30.1903 37.5206 31.6388 35.6569C34.0285 35.3757 36.3889 34.8967 38.694 34.225C38.7363 34.5186 38.7715 34.807 38.8015 35.0937H38.7962ZM40.5265 31.1686C39.9708 28.9004 39.2173 26.6818 38.2742 24.5368C39.2169 22.3906 39.9698 20.1709 40.5248 17.9016C45.0102 19.685 47.6224 22.1561 47.6224 24.5368C47.6224 26.9175 45.0172 29.3886 40.523 31.172" fill="#E8DFCB"/>
<path d="M24.9985 29.3787C27.62 29.3787 29.7451 27.2569 29.7451 24.6395C29.7451 22.0221 27.62 19.9003 24.9985 19.9003C22.3771 19.9003 20.252 22.0221 20.252 24.6395C20.252 27.2569 22.3771 29.3787 24.9985 29.3787Z" fill="#E8DFCB"/>
<path d="M49.9975 24.4872C49.9975 20.8634 46.5153 17.6818 40.974 15.5943C41.8697 9.9145 40.7538 5.41205 37.498 3.60016C34.5904 1.98066 30.5639 2.77318 26.1593 5.83415C25.7695 6.10407 25.3826 6.39124 24.9957 6.68986C24.6118 6.39124 24.2249 6.10407 23.838 5.83415C19.4335 2.77318 15.4069 1.97778 12.4993 3.60016C9.24653 5.41205 8.13051 9.91161 9.02928 15.5856C3.48196 17.676 0 20.8605 0 24.4872C0 28.111 3.48196 31.2925 9.02333 33.3801C8.12756 39.0598 9.24357 43.5624 12.4993 45.3741C13.4844 45.9227 14.6004 46.1954 15.8146 46.1954C18.1806 46.1954 20.9274 45.1617 23.838 43.1402C24.2279 42.8703 24.6148 42.583 25.0016 42.2845C25.3856 42.583 25.7724 42.8703 26.1593 43.1402C29.0699 45.1645 31.8168 46.1954 34.1827 46.1954C35.3969 46.1954 36.5129 45.9227 37.498 45.3741C40.4056 43.7546 41.706 39.993 41.1616 34.7813C41.114 34.3219 41.0513 33.8568 40.974 33.3829C46.5186 31.2954 49.9975 28.1138 49.9975 24.4872ZM27.5521 7.69773C30.0282 5.97771 32.3316 5.08183 34.1827 5.08183C34.9833 5.08183 35.6975 5.24838 36.3076 5.58721C38.4385 6.77599 39.3491 10.1844 38.6973 14.8304C36.5546 14.1959 34.1827 13.7106 31.6323 13.4004C30.1055 11.4622 28.4866 9.71351 26.8289 8.22033C27.07 8.04232 27.311 7.86428 27.5521 7.69773ZM13.6898 5.58721C14.2999 5.24838 15.0141 5.08183 15.8146 5.08183C17.6657 5.08183 19.9692 5.97486 22.4453 7.69773C22.6863 7.86428 22.9273 8.03943 23.1684 8.22033C21.5108 9.71351 19.8948 11.4593 18.3681 13.3976C15.8206 13.7077 13.4457 14.1959 11.303 14.8276C10.6512 10.1844 11.5589 6.77599 13.6898 5.58721ZM2.38083 24.4872C2.38083 22.1124 4.98782 19.6459 9.48461 17.8684C9.98757 19.9732 10.7375 22.1986 11.7285 24.4814C10.7316 26.7671 9.98162 28.9954 9.47867 31.103C4.98782 29.3256 2.38083 26.8619 2.38083 24.4872ZM22.4453 41.2765C18.8978 43.7403 15.7075 44.5097 13.6898 43.3872C11.5589 42.1985 10.6483 38.7899 11.3 34.1439C13.4427 34.7785 15.8146 35.2638 18.3651 35.5739C19.8918 37.5121 21.5108 39.2608 23.1684 40.754C22.9273 40.9349 22.6863 41.11 22.4453 41.2765ZM24.9987 39.2579C22.0227 36.6277 19.1627 33.113 16.7491 29.0815C16.1033 28.0047 14.7976 25.2981 14.2679 24.25C13.8453 25.2263 13.4279 26.1219 13.1005 27.0752C13.3684 27.5547 14.401 29.7477 14.6867 30.2272C15.2522 31.1719 15.8444 32.0908 16.4545 32.9809C14.7433 32.6909 13.16 32.3176 11.7196 31.8783C12.538 28.312 14.1719 24.2 16.7491 19.8928C17.383 18.8333 18.7602 16.4674 19.4507 15.4854C18.3615 15.6204 17.4867 15.5757 16.463 15.7796C16.1654 16.2447 14.9724 18.2676 14.6867 18.7471C14.1153 19.7004 13.5915 20.6538 13.1005 21.6013C12.5053 20.0249 12.0499 18.5145 11.7256 17.0903C15.3355 15.9905 19.8442 15.2985 24.9987 15.2985C26.2873 15.2985 28.9785 15.2733 30.1808 15.3566C29.5172 14.5152 28.948 13.7536 28.2546 13.0013C27.6921 12.9841 25.5731 13.0013 24.9987 13.0013C23.8618 13.0013 22.7488 13.0386 21.6566 13.1018C22.7399 11.8585 23.8618 10.7214 24.9987 9.71636C27.9717 12.3466 30.8347 15.8613 33.2482 19.8928C33.8821 20.9524 35.2518 23.419 35.7904 24.4872C36.216 23.5109 36.6186 22.6205 36.9489 21.6614C36.6811 21.179 35.5963 19.2209 35.3106 18.7442C34.7452 17.7995 34.153 16.8807 33.5429 15.9934C35.2541 16.2834 36.8373 16.6567 38.2777 17.096C37.4593 20.6624 35.8255 24.7743 33.2482 29.0815C32.6143 30.1411 30.8103 32.5675 30.1199 33.5495C31.2091 33.4145 32.3887 33.2128 33.4125 33.0089C33.7101 32.5437 35.0249 30.7067 35.3106 30.2272C35.879 29.2796 36.4028 28.3321 36.8879 27.3873C37.4653 28.9207 37.9236 30.4282 38.2569 31.8869C34.65 32.9867 30.1472 33.6759 24.9987 33.6759C23.7101 33.6759 20.714 33.5123 19.5116 33.429C20.1753 34.2703 20.8901 35.1463 21.5835 35.8986C22.146 35.9158 24.4243 35.973 24.9987 35.973C26.1355 35.973 27.2486 35.9357 28.3407 35.8725C27.2545 37.1158 26.1355 38.2529 24.9987 39.2579ZM36.3076 43.3872C34.2898 44.5128 31.0966 43.7431 27.5521 41.2765C27.311 41.11 27.07 40.9349 26.8289 40.754C28.4866 39.2608 30.1026 37.515 31.6293 35.5767C34.1738 35.2666 36.5427 34.7813 38.6825 34.1496C38.7241 34.4396 38.7658 34.7297 38.7955 35.0139C39.233 39.212 38.3254 42.2615 36.3076 43.3872ZM40.5187 31.1059C40.0068 28.9695 39.2479 26.7441 38.2688 24.4958C39.2658 22.2101 40.0158 19.9818 40.5187 17.8742C45.0094 19.6516 47.6167 22.1124 47.6167 24.4872C47.6167 26.8619 45.0127 29.3256 40.5187 31.1059Z" fill="#E8DFCB"/>
</svg>
