<svg width="157" height="40" viewBox="0 0 157 40" fill="none" xmlns="http://www.w3.org/2000/svg">
<path d="M35.2311 14.4415H23.0915L24.9627 12.1011L11.55 12.0727L4.99777 20.4611H17.7312L12.1071 28.3031H2.49951L14.1663 37.5001L37.4993 28.3031H25.9524L35.2311 14.4415ZM32.6396 2.5H19.0283L17.159 4.89322H30.7263L32.6396 2.5ZM28.9326 7.13673H15.4067L13.3572 9.76061H26.835L28.9326 7.13673Z" fill="#E8DFCB"/>
<path d="M51.517 28V10.5455H58.4034C59.7216 10.5455 60.8466 10.7812 61.7784 11.2528C62.7159 11.7187 63.429 12.3807 63.9176 13.2386C64.4119 14.0909 64.6591 15.0937 64.6591 16.2472C64.6591 17.4062 64.4091 18.4034 63.9091 19.2386C63.4091 20.0682 62.6847 20.7045 61.7358 21.1477C60.7926 21.5909 59.6506 21.8125 58.3097 21.8125H53.6989V18.8466H57.7131C58.4176 18.8466 59.0028 18.75 59.4688 18.5568C59.9347 18.3636 60.2813 18.0739 60.5085 17.6875C60.7415 17.3011 60.858 16.821 60.858 16.2472C60.858 15.6676 60.7415 15.179 60.5085 14.7812C60.2813 14.3835 59.9318 14.0824 59.4602 13.8778C58.9943 13.6676 58.4063 13.5625 57.696 13.5625H55.2074V28H51.517ZM60.9432 20.0568L65.2812 28H61.2074L56.9631 20.0568H60.9432ZM72.9027 28.2557C71.5788 28.2557 70.4339 27.9744 69.468 27.4119C68.5078 26.8437 67.7663 26.054 67.2436 25.0426C66.7209 24.0256 66.4595 22.8466 66.4595 21.5057C66.4595 20.1534 66.7209 18.9716 67.2436 17.9602C67.7663 16.9432 68.5078 16.1534 69.468 15.5909C70.4339 15.0227 71.5788 14.7386 72.9027 14.7386C74.2266 14.7386 75.3686 15.0227 76.3288 15.5909C77.2947 16.1534 78.0391 16.9432 78.5618 17.9602C79.0845 18.9716 79.3459 20.1534 79.3459 21.5057C79.3459 22.8466 79.0845 24.0256 78.5618 25.0426C78.0391 26.054 77.2947 26.8437 76.3288 27.4119C75.3686 27.9744 74.2266 28.2557 72.9027 28.2557ZM72.9197 25.4432C73.522 25.4432 74.0249 25.2727 74.4283 24.9318C74.8317 24.5852 75.1357 24.1136 75.3402 23.517C75.5504 22.9205 75.6555 22.2415 75.6555 21.4801C75.6555 20.7188 75.5504 20.0398 75.3402 19.4432C75.1357 18.8466 74.8317 18.375 74.4283 18.0284C74.0249 17.6818 73.522 17.5085 72.9197 17.5085C72.3118 17.5085 71.8004 17.6818 71.3857 18.0284C70.9766 18.375 70.6669 18.8466 70.4567 19.4432C70.2521 20.0398 70.1499 20.7188 70.1499 21.4801C70.1499 22.2415 70.2521 22.9205 70.4567 23.517C70.6669 24.1136 70.9766 24.5852 71.3857 24.9318C71.8004 25.2727 72.3118 25.4432 72.9197 25.4432ZM85.3374 10.5455V28H81.7067V10.5455H85.3374ZM91.8764 10.5455V28H88.2457V10.5455H91.8764ZM99.6087 28.2131C98.6143 28.2131 97.7138 27.9574 96.907 27.446C96.1058 26.929 95.4695 26.1705 94.9979 25.1705C94.532 24.1648 94.299 22.9318 94.299 21.4716C94.299 19.9716 94.5405 18.7244 95.0234 17.7301C95.5064 16.7301 96.1484 15.983 96.9496 15.4886C97.7564 14.9886 98.6399 14.7386 99.6001 14.7386C100.333 14.7386 100.944 14.8636 101.433 15.1136C101.927 15.358 102.325 15.6648 102.626 16.0341C102.933 16.3977 103.165 16.7557 103.325 17.108H103.435V10.5455H107.058V28H103.478V25.9034H103.325C103.154 26.267 102.913 26.6278 102.6 26.9858C102.293 27.3381 101.893 27.6307 101.398 27.8636C100.91 28.0966 100.313 28.2131 99.6087 28.2131ZM100.759 25.3239C101.344 25.3239 101.839 25.1648 102.242 24.8466C102.651 24.5227 102.964 24.071 103.18 23.4915C103.401 22.9119 103.512 22.233 103.512 21.4545C103.512 20.6761 103.404 20 103.188 19.4261C102.972 18.8523 102.66 18.4091 102.251 18.0966C101.842 17.7841 101.344 17.6278 100.759 17.6278C100.163 17.6278 99.6598 17.7898 99.2507 18.1136C98.8416 18.4375 98.532 18.8864 98.3217 19.4602C98.1115 20.0341 98.0064 20.6989 98.0064 21.4545C98.0064 22.2159 98.1115 22.8892 98.3217 23.4744C98.5376 24.054 98.8473 24.5085 99.2507 24.8381C99.6598 25.1619 100.163 25.3239 100.759 25.3239ZM115.957 28.2557C114.634 28.2557 113.489 27.9744 112.523 27.4119C111.563 26.8437 110.821 26.054 110.298 25.0426C109.776 24.0256 109.514 22.8466 109.514 21.5057C109.514 20.1534 109.776 18.9716 110.298 17.9602C110.821 16.9432 111.563 16.1534 112.523 15.5909C113.489 15.0227 114.634 14.7386 115.957 14.7386C117.281 14.7386 118.423 15.0227 119.384 15.5909C120.349 16.1534 121.094 16.9432 121.616 17.9602C122.139 18.9716 122.401 20.1534 122.401 21.5057C122.401 22.8466 122.139 24.0256 121.616 25.0426C121.094 26.054 120.349 26.8437 119.384 27.4119C118.423 27.9744 117.281 28.2557 115.957 28.2557ZM115.974 25.4432C116.577 25.4432 117.08 25.2727 117.483 24.9318C117.886 24.5852 118.19 24.1136 118.395 23.517C118.605 22.9205 118.71 22.2415 118.71 21.4801C118.71 20.7188 118.605 20.0398 118.395 19.4432C118.19 18.8466 117.886 18.375 117.483 18.0284C117.08 17.6818 116.577 17.5085 115.974 17.5085C115.366 17.5085 114.855 17.6818 114.44 18.0284C114.031 18.375 113.722 18.8466 113.511 19.4432C113.307 20.0398 113.205 20.7188 113.205 21.4801C113.205 22.2415 113.307 22.9205 113.511 23.517C113.722 24.1136 114.031 24.5852 114.44 24.9318C114.855 25.2727 115.366 25.4432 115.974 25.4432ZM127.016 28L123.453 14.9091H127.126L129.155 23.7045H129.274L131.388 14.9091H134.993L137.141 23.6534H137.251L139.246 14.9091H142.911L139.357 28H135.513L133.263 19.767H133.101L130.851 28H127.016ZM148.478 20.4318V28H144.847V14.9091H148.308V17.2188H148.461C148.751 16.4574 149.237 15.8551 149.918 15.4119C150.6 14.9631 151.427 14.7386 152.398 14.7386C153.308 14.7386 154.1 14.9375 154.776 15.3352C155.452 15.733 155.978 16.3011 156.353 17.0398C156.728 17.7727 156.915 18.6477 156.915 19.6648V28H153.285V20.3125C153.29 19.5114 153.086 18.8864 152.671 18.4375C152.256 17.983 151.685 17.7557 150.958 17.7557C150.469 17.7557 150.038 17.8608 149.663 18.071C149.293 18.2812 149.004 18.5881 148.793 18.9915C148.589 19.3892 148.484 19.8693 148.478 20.4318Z" fill="#E8DFCB"/>
</svg>
