<svg width="50" height="50" viewBox="0 0 50 50" fill="none" xmlns="http://www.w3.org/2000/svg">
<g clip-path="url(#clip0_125_225)">
<path d="M45.1172 0H4.88281C2.18611 0 0 2.18611 0 4.88281V45.1172C0 47.8139 2.18611 50 4.88281 50H45.1172C47.8139 50 50 47.8139 50 45.1172V4.88281C50 2.18611 47.8139 0 45.1172 0Z" fill="#E8DFCB"/>
<path d="M45.1172 0H4.88281C2.18611 0 0 2.18611 0 4.88281V45.1172C0 47.8139 2.18611 50 4.88281 50H45.1172C47.8139 50 50 47.8139 50 45.1172V4.88281C50 2.18611 47.8139 0 45.1172 0Z" fill="#E8DFCB"/>
<path fill-rule="evenodd" clip-rule="evenodd" d="M30.9511 39.7875V44.6763C31.7458 45.0837 32.6857 45.3892 33.7709 45.5929C34.8561 45.7966 35.9997 45.8984 37.2021 45.8984C38.3738 45.8984 39.4869 45.7864 40.5415 45.5623C41.5961 45.3383 42.5208 44.969 43.3155 44.4547C44.1103 43.9404 44.7395 43.2682 45.203 42.4381C45.6666 41.608 45.8984 40.5819 45.8984 39.3598C45.8984 38.4736 45.766 37.6971 45.5011 37.03C45.2361 36.3629 44.8541 35.7696 44.3548 35.2502C43.8556 34.7308 43.2569 34.2647 42.559 33.8522C41.861 33.4397 41.0739 33.0502 40.1977 32.6836C39.5558 32.4187 38.9801 32.1616 38.4706 31.9121C37.9611 31.6625 37.5281 31.4079 37.1715 31.1482C36.8148 30.8885 36.5397 30.6135 36.3462 30.3232C36.1526 30.0329 36.0558 29.7045 36.0558 29.3378C36.0558 29.0018 36.1424 28.6987 36.3156 28.4288C36.4889 28.1589 36.7334 27.9272 37.0492 27.7337C37.3651 27.5402 37.7522 27.3899 38.2107 27.283C38.6693 27.1761 39.1787 27.1227 39.7392 27.1227C40.1467 27.1227 40.5772 27.1532 41.0306 27.2143C41.484 27.2754 41.9399 27.3696 42.3985 27.4969C42.857 27.6242 43.3027 27.7847 43.7358 27.9781C44.1688 28.1717 44.5688 28.3957 44.9355 28.6504V24.0824C44.1918 23.7973 43.3792 23.5859 42.4979 23.4484C41.6165 23.3109 40.6052 23.2422 39.4641 23.2422C38.3024 23.2422 37.2021 23.367 36.1628 23.6165C35.1235 23.866 34.2091 24.2556 33.4193 24.7852C32.6297 25.3148 32.0057 25.9895 31.5472 26.8095C31.0887 27.6293 30.8594 28.6096 30.8594 29.7503C30.8594 31.2067 31.2797 32.4493 32.1203 33.478C32.9608 34.5066 34.237 35.3774 35.9488 36.0904C36.6213 36.3654 37.2479 36.6353 37.8287 36.9001C38.4095 37.1649 38.9113 37.4399 39.3341 37.7251C39.7569 38.0103 40.0906 38.3209 40.3353 38.657C40.5798 38.9931 40.7021 39.375 40.7021 39.8028C40.7021 40.1186 40.6256 40.4113 40.4728 40.6812C40.3199 40.9512 40.0881 41.1854 39.7773 41.384C39.4666 41.5826 39.0794 41.7379 38.6158 41.8499C38.1521 41.962 37.6097 42.018 36.9881 42.018C35.9284 42.018 34.879 41.8321 33.8396 41.4604C32.8004 41.0887 31.8375 40.5311 30.9511 39.7875ZM22.7324 27.7424H29.0039V23.7305H11.5234V27.7424H17.7643V45.6055H22.7324V27.7424Z" fill="#2B2927"/>
</g>
<defs>
<clipPath id="clip0_125_225">
<rect width="50" height="50" fill="white"/>
</clipPath>
</defs>
</svg>
