<svg width="112" height="27" viewBox="0 0 112 27" fill="none" xmlns="http://www.w3.org/2000/svg">
<g clip-path="url(#clip0_112_5)">
<path d="M13.9602 2.4577H8.14931V20.2939H5.77544V2.4577H0V0.351162H13.9602V2.4577ZM24.9086 6.03911L18.2827 22.5762C17.1135 25.5253 15.4483 27 13.3223 27C12.7201 27 12.2242 26.9298 11.8342 26.8244V24.7881C12.3303 24.9637 12.791 25.0339 13.1806 25.0339C14.3498 25.0339 15.2003 24.3316 15.8025 22.9623L16.9365 20.2588L11.3383 6.0389H13.8893L17.7866 16.9936C17.822 17.1341 17.9283 17.4853 18.0701 18.0822H18.1409C18.1764 17.8715 18.2827 17.5204 18.4244 17.0287L22.4991 6.03933L24.9086 6.03911ZM28.6643 18.2225H28.5935V26.8244H26.2905V6.03911H28.5935V8.53193H28.6643C29.7981 6.63587 31.4635 5.68795 33.6247 5.68795C35.4672 5.68795 36.92 6.31983 37.9474 7.58379C38.9749 8.84776 39.5065 10.5682 39.5065 12.7101C39.5065 15.0976 38.9042 16.9934 37.7348 18.433C36.5656 19.8725 34.9711 20.5746 32.9516 20.5746C31.1448 20.6451 29.6918 19.8376 28.6643 18.2225ZM28.6289 12.4994V14.5006C28.6289 15.6943 29.0187 16.6776 29.7981 17.485C30.5778 18.2925 31.5343 18.7141 32.739 18.7141C34.1208 18.7141 35.2192 18.1874 36.0342 17.1339C36.8137 16.0806 37.2035 14.6059 37.2035 12.7101C37.2035 11.1299 36.8491 9.86613 36.1051 8.98822C35.3609 8.07542 34.3689 7.65403 33.0934 7.65403C31.747 7.65403 30.6841 8.11053 29.869 9.02334C29.0187 9.93636 28.6289 11.095 28.6289 12.4994ZM53.6084 13.7283H43.4748C43.5103 15.3083 43.9355 16.5371 44.7503 17.4148C45.5654 18.2927 46.6992 18.7139 48.1519 18.7139C49.7816 18.7139 51.2698 18.1871 52.6162 17.1339V19.2755C51.3408 20.1885 49.6755 20.6451 47.6203 20.6451C45.6008 20.6451 44.0064 20.013 42.8372 18.7139C41.6677 17.4148 41.1009 15.589 41.1009 13.2717C41.1009 11.0599 41.7386 9.23404 43.0143 7.86472C44.2897 6.46029 45.8487 5.75818 47.7267 5.75818C49.6046 5.75818 51.0573 6.35494 52.0848 7.58379C53.1123 8.77774 53.6438 10.4629 53.6438 12.6048L53.6084 13.7283ZM51.2343 11.7971C51.2343 10.4629 50.9156 9.44473 50.2777 8.70751C49.6401 7.97007 48.7541 7.61891 47.6558 7.61891C46.5574 7.61891 45.6363 8.00519 44.8921 8.77774C44.1481 9.55008 43.652 10.5682 43.4748 11.7973L51.2343 11.7971ZM54.7422 19.5918V18.0116C56.1947 18.9246 57.6476 19.3811 59.1358 19.3811C60.6948 19.3811 61.8995 19.065 62.7145 18.3978C63.5292 17.7308 63.919 16.8532 63.919 15.6943C63.919 14.6762 63.6355 13.8687 63.1041 13.2366C62.5726 12.6399 61.3679 11.7973 59.5608 10.7438C57.5059 9.55008 56.2303 8.56705 55.6988 7.79449C55.1672 6.98703 54.8839 6.07423 54.8839 5.05586C54.8839 3.65143 55.4507 2.4577 56.5493 1.47466C57.6472 0.491626 59.1358 0 60.9781 0C62.1827 0 63.3876 0.210697 64.5568 0.596975V2.0363C63.3876 1.50956 62.1121 1.22885 60.7657 1.22885C59.3838 1.22885 58.3207 1.58001 57.5059 2.247C56.6908 2.94932 56.3012 3.7919 56.3012 4.84516C56.3012 5.86353 56.5847 6.67099 57.1161 7.26796C57.6476 7.86472 58.8523 8.70729 60.6594 9.72566C62.5371 10.7789 63.7772 11.7269 64.4151 12.5345C65.0527 13.342 65.3362 14.2899 65.3362 15.3785C65.3362 16.9232 64.8047 18.1522 63.7418 19.1351C62.6789 20.1183 61.1553 20.5748 59.2067 20.5748C58.4979 20.5748 57.7185 20.4695 56.7971 20.2588C55.8762 20.0481 55.2029 19.8725 54.7422 19.5918ZM77.3122 19.6618C76.2493 20.2939 74.9737 20.6451 73.4856 20.6451C71.5369 20.6451 69.9425 19.9779 68.7378 18.6437C67.5332 17.3095 66.9307 15.589 66.9307 13.4122C66.9307 11.1652 67.604 9.30449 68.9504 7.86472C70.2968 6.42539 72.0328 5.68795 74.1589 5.68795C75.257 5.68795 76.3201 5.89865 77.3476 6.35494V7.79449C76.3201 7.16262 75.1863 6.84657 73.9817 6.84657C72.2809 6.84657 70.9345 7.44354 69.8714 8.63706C68.8087 9.83101 68.3126 11.411 68.3126 13.3069C68.3126 15.1678 68.8087 16.6425 69.7651 17.7657C70.7219 18.8895 71.9974 19.4513 73.5564 19.4513C75.0092 19.4513 76.2493 19.065 77.3124 18.3276L77.3122 19.6618ZM85.8867 7.37331C85.4615 7.05727 84.9656 6.9168 84.3631 6.9168C83.2293 6.9168 82.2727 7.51356 81.5286 8.67239C80.7492 9.83101 80.3948 11.4813 80.3948 13.6229V20.329H79.1195V6.03911H80.3948V9.19892H80.4657C80.7846 8.11054 81.3159 7.26796 82.0247 6.67099C82.7334 6.07423 83.5483 5.75818 84.5049 5.75818C85.0364 5.75818 85.5323 5.82842 85.9224 6.004V7.37331H85.8867ZM87.9419 2.4577C87.6584 2.4577 87.4103 2.35235 87.1977 2.14165C86.9851 1.93117 86.8788 1.68536 86.8788 1.36931C86.8788 1.05327 86.9851 0.807455 87.1977 0.632091C87.4103 0.45651 87.6584 0.351162 87.9419 0.351162C88.2252 0.351162 88.4734 0.45651 88.7213 0.632091C88.9339 0.807672 89.0402 1.05327 89.0402 1.36931C89.0409 1.51251 89.0131 1.65442 88.9584 1.78695C88.9036 1.91948 88.8231 2.04001 88.7213 2.14165C88.4732 2.35235 88.2252 2.4577 87.9419 2.4577ZM87.304 20.2939V6.03911H88.5795V20.2937L87.304 20.2939ZM93.0086 17.766H92.9377V26.8595H91.6622V6.03911H92.9377V8.98822H93.0086C93.5401 7.93495 94.2487 7.1275 95.2052 6.56564C96.1621 6.004 97.225 5.72307 98.3588 5.72307C100.201 5.72307 101.619 6.35494 102.646 7.58379C103.674 8.84776 104.17 10.5331 104.17 12.675C104.17 15.0625 103.567 16.9934 102.398 18.4681C101.229 19.9427 99.6697 20.6802 97.7563 20.6802C95.6305 20.6451 94.036 19.6969 93.0086 17.766ZM92.9377 12.4643V14.2548C92.9377 15.6943 93.3984 16.9232 94.2841 17.9415C95.2053 18.9597 96.3745 19.4864 97.8628 19.4864C99.3153 19.4864 100.52 18.8543 101.441 17.6255C102.363 16.3615 102.823 14.7464 102.823 12.7101C102.823 10.9194 102.398 9.51497 101.548 8.46148C100.697 7.40843 99.5988 6.88169 98.1816 6.88169C96.5162 6.88169 95.2053 7.44354 94.2841 8.56705C93.3629 9.69055 92.9377 10.9545 92.9377 12.4643ZM112 20.0832C111.327 20.3992 110.689 20.5397 110.122 20.5397C107.996 20.5397 106.933 19.2757 106.933 16.7478V7.23285H104.347V6.07423H106.933V2.35235L107.571 2.14165L108.209 1.93117V6.07423H112V7.23285H108.209V16.6425C108.209 17.6255 108.351 18.3276 108.669 18.7841C108.988 19.2406 109.52 19.4513 110.264 19.4513C110.795 19.4513 111.362 19.2757 112 18.9246V20.0832Z" fill="#E8DFCB"/>
</g>
<defs>
<clipPath id="clip0_112_5">
    <rect width="112" height="27" fill="#E8DFCB"/>
</clipPath>
</defs>
</svg>
