<svg width="3975" height="1463" viewBox="0 0 3975 1463" fill="none" xmlns="http://www.w3.org/2000/svg">
<rect width="3975" height="1463" rx="120" fill="#E8DFCB"/>
<path d="M385.5 757H403.25L418 868.5H420.25L442.25 757H464.25L486.25 868.5H488.5L503.25 757H520.5L500.75 886H474.75L454.25 778H452.25L431.25 886H405.25L385.5 757ZM605.152 889C595.819 889 587.402 887.417 579.902 884.25C572.569 881.083 566.236 876.583 560.902 870.75C555.736 864.75 551.736 857.667 548.902 849.5C546.069 841.167 544.652 831.917 544.652 821.75C544.652 811.417 546.069 802.083 548.902 793.75C551.902 785.417 555.986 778.333 561.152 772.5C566.319 766.5 572.486 761.917 579.652 758.75C586.986 755.583 595.069 754 603.902 754C612.569 754 620.402 755.583 627.402 758.75C634.569 761.917 640.652 766.333 645.652 772C650.652 777.5 654.486 784.083 657.152 791.75C659.819 799.417 661.152 807.833 661.152 817V826.5H565.652V832.5C565.652 838.167 566.569 843.417 568.402 848.25C570.236 853.083 572.819 857.25 576.152 860.75C579.652 864.25 583.819 867 588.652 869C593.652 870.833 599.152 871.75 605.152 871.75C613.819 871.75 621.319 869.75 627.652 865.75C633.986 861.75 638.819 856.25 642.152 849.25L656.902 859.25C653.069 867.917 646.652 875.083 637.652 880.75C628.819 886.25 617.986 889 605.152 889ZM603.902 770.5C598.402 770.5 593.319 771.5 588.652 773.5C583.986 775.5 579.902 778.25 576.402 781.75C573.069 785.25 570.402 789.417 568.402 794.25C566.569 798.917 565.652 804.083 565.652 809.75V811.5H639.652V808.75C639.652 803.083 638.736 797.917 636.902 793.25C635.236 788.583 632.819 784.583 629.652 781.25C626.652 777.75 622.902 775.083 618.402 773.25C614.069 771.417 609.236 770.5 603.902 770.5ZM701.555 701H721.555V778H722.555C730.888 762 744.138 754 762.305 754C778.138 754 790.471 759.917 799.305 771.75C808.305 783.583 812.805 800.167 812.805 821.5C812.805 842.833 808.305 859.417 799.305 871.25C790.471 883.083 778.138 889 762.305 889C744.138 889 730.888 881 722.555 865H721.555V886H701.555V701ZM754.555 871.25C766.221 871.25 775.221 867.75 781.555 860.75C788.055 853.583 791.305 844.167 791.305 832.5V810.5C791.305 798.833 788.055 789.5 781.555 782.5C775.221 775.333 766.221 771.75 754.555 771.75C750.055 771.75 745.805 772.333 741.805 773.5C737.805 774.667 734.305 776.417 731.305 778.75C728.305 780.917 725.888 783.667 724.055 787C722.388 790.167 721.555 793.917 721.555 798.25V844.75C721.555 849.083 722.388 852.917 724.055 856.25C725.888 859.417 728.305 862.167 731.305 864.5C734.305 866.667 737.805 868.333 741.805 869.5C745.805 870.667 750.055 871.25 754.555 871.25ZM904.207 889C890.707 889 879.04 886.75 869.207 882.25C859.54 877.583 851.29 871.417 844.457 863.75L857.957 852C864.124 858.5 870.874 863.5 878.207 867C885.54 870.5 894.374 872.25 904.707 872.25C914.707 872.25 922.874 870.5 929.207 867C935.707 863.333 938.957 857.667 938.957 850C938.957 846.667 938.29 843.917 936.957 841.75C935.79 839.417 934.124 837.583 931.957 836.25C929.79 834.917 927.374 833.917 924.707 833.25C922.04 832.417 919.207 831.75 916.207 831.25L895.957 828.25C891.457 827.583 886.54 826.667 881.207 825.5C876.04 824.333 871.29 822.5 866.957 820C862.624 817.333 858.957 813.833 855.957 809.5C853.124 805.167 851.707 799.5 851.707 792.5C851.707 786 852.957 780.417 855.457 775.75C858.124 770.917 861.79 766.917 866.457 763.75C871.124 760.417 876.624 758 882.957 756.5C889.29 754.833 896.207 754 903.707 754C915.374 754 925.457 755.833 933.957 759.5C942.624 763.167 950.04 768.25 956.207 774.75L943.207 787C941.707 785.167 939.79 783.333 937.457 781.5C935.29 779.5 932.54 777.75 929.207 776.25C926.04 774.583 922.29 773.25 917.957 772.25C913.624 771.25 908.624 770.75 902.957 770.75C892.79 770.75 884.957 772.5 879.457 776C874.124 779.5 871.457 784.583 871.457 791.25C871.457 794.583 872.04 797.417 873.207 799.75C874.54 801.917 876.29 803.667 878.457 805C880.624 806.333 883.04 807.417 885.707 808.25C888.54 808.917 891.374 809.5 894.207 810L914.457 813C919.124 813.667 924.04 814.583 929.207 815.75C934.374 816.917 939.124 818.833 943.457 821.5C947.79 824 951.374 827.417 954.207 831.75C957.207 836.083 958.707 841.75 958.707 848.75C958.707 861.583 953.707 871.5 943.707 878.5C933.874 885.5 920.707 889 904.207 889ZM1060.61 728.5C1054.78 728.5 1050.69 727.333 1048.36 725C1046.03 722.5 1044.86 719.417 1044.86 715.75V711.75C1044.86 708.083 1046.03 705.083 1048.36 702.75C1050.69 700.25 1054.78 699 1060.61 699C1066.44 699 1070.53 700.25 1072.86 702.75C1075.19 705.083 1076.36 708.083 1076.36 711.75V715.75C1076.36 719.417 1075.19 722.5 1072.86 725C1070.53 727.333 1066.44 728.5 1060.61 728.5ZM1004.11 869H1050.61V774H1004.11V757H1070.61V869H1114.11V886H1004.11V869ZM1208.76 886C1198.93 886 1191.68 883.25 1187.01 877.75C1182.51 872.25 1180.26 865.167 1180.26 856.5V774H1137.26V757H1169.26C1173.6 757 1176.6 756.167 1178.26 754.5C1180.1 752.667 1181.01 749.583 1181.01 745.25V711.5H1200.26V757H1259.01V774H1200.26V869H1259.01V886H1208.76ZM1354.66 889C1345.33 889 1336.91 887.417 1329.41 884.25C1322.08 881.083 1315.75 876.583 1310.41 870.75C1305.25 864.75 1301.25 857.667 1298.41 849.5C1295.58 841.167 1294.16 831.917 1294.16 821.75C1294.16 811.417 1295.58 802.083 1298.41 793.75C1301.41 785.417 1305.5 778.333 1310.66 772.5C1315.83 766.5 1322 761.917 1329.16 758.75C1336.5 755.583 1344.58 754 1353.41 754C1362.08 754 1369.91 755.583 1376.91 758.75C1384.08 761.917 1390.16 766.333 1395.16 772C1400.16 777.5 1404 784.083 1406.66 791.75C1409.33 799.417 1410.66 807.833 1410.66 817V826.5H1315.16V832.5C1315.16 838.167 1316.08 843.417 1317.91 848.25C1319.75 853.083 1322.33 857.25 1325.66 860.75C1329.16 864.25 1333.33 867 1338.16 869C1343.16 870.833 1348.66 871.75 1354.66 871.75C1363.33 871.75 1370.83 869.75 1377.16 865.75C1383.5 861.75 1388.33 856.25 1391.66 849.25L1406.41 859.25C1402.58 867.917 1396.16 875.083 1387.16 880.75C1378.33 886.25 1367.5 889 1354.66 889ZM1353.41 770.5C1347.91 770.5 1342.83 771.5 1338.16 773.5C1333.5 775.5 1329.41 778.25 1325.91 781.75C1322.58 785.25 1319.91 789.417 1317.91 794.25C1316.08 798.917 1315.16 804.083 1315.16 809.75V811.5H1389.16V808.75C1389.16 803.083 1388.25 797.917 1386.41 793.25C1384.75 788.583 1382.33 784.583 1379.16 781.25C1376.16 777.75 1372.41 775.083 1367.91 773.25C1363.58 771.417 1358.75 770.5 1353.41 770.5ZM1502.32 888.25C1495.48 888.25 1490.65 886.833 1487.82 884C1485.15 881.167 1483.82 877.583 1483.82 873.25V868.75C1483.82 864.417 1485.15 860.833 1487.82 858C1490.65 855.167 1495.48 853.75 1502.32 853.75C1509.15 853.75 1513.9 855.167 1516.57 858C1519.4 860.833 1520.82 864.417 1520.82 868.75V873.25C1520.82 877.583 1519.4 881.167 1516.57 884C1513.9 886.833 1509.15 888.25 1502.32 888.25Z" fill="#2B2927"/>
<rect x="378" y="508" width="703" height="122" rx="34" fill="#2B2927"/>
<path d="M421.39 549.3H425.79V566.24H426.01C426.303 565.543 426.67 564.883 427.11 564.26C427.55 563.6 428.082 563.032 428.705 562.555C429.365 562.078 430.135 561.693 431.015 561.4C431.895 561.107 432.922 560.96 434.095 560.96C437.065 560.96 439.448 561.913 441.245 563.82C443.042 565.69 443.94 568.348 443.94 571.795V590H439.54V572.565C439.54 569.962 438.972 568.037 437.835 566.79C436.698 565.507 435.03 564.865 432.83 564.865C431.95 564.865 431.088 564.975 430.245 565.195C429.402 565.415 428.65 565.745 427.99 566.185C427.33 566.625 426.798 567.193 426.395 567.89C425.992 568.587 425.79 569.393 425.79 570.31V590H421.39V549.3ZM466.854 590C464.69 590 463.095 589.395 462.069 588.185C461.079 586.975 460.584 585.417 460.584 583.51V565.36H451.124V561.62H458.164C459.117 561.62 459.777 561.437 460.144 561.07C460.547 560.667 460.749 559.988 460.749 559.035V551.61H464.984V561.62H477.909V565.36H464.984V586.26H477.909V590H466.854ZM499.832 590C497.669 590 496.074 589.395 495.047 588.185C494.057 586.975 493.562 585.417 493.562 583.51V565.36H484.102V561.62H491.142C492.095 561.62 492.755 561.437 493.122 561.07C493.525 560.667 493.727 559.988 493.727 559.035V551.61H497.962V561.62H510.887V565.36H497.962V586.26H510.887V590H499.832ZM520.161 561.62H524.561V566.24H524.781C526.614 562.72 529.529 560.96 533.526 560.96C537.009 560.96 539.722 562.262 541.666 564.865C543.646 567.468 544.636 571.117 544.636 575.81C544.636 580.503 543.646 584.152 541.666 586.755C539.722 589.358 537.009 590.66 533.526 590.66C529.529 590.66 526.614 588.9 524.781 585.38H524.561V601H520.161V561.62ZM531.821 586.755C534.387 586.755 536.367 585.985 537.761 584.445C539.191 582.868 539.906 580.797 539.906 578.23V573.39C539.906 570.823 539.191 568.77 537.761 567.23C536.367 565.653 534.387 564.865 531.821 564.865C530.831 564.865 529.896 564.993 529.016 565.25C528.136 565.507 527.366 565.892 526.706 566.405C526.046 566.882 525.514 567.487 525.111 568.22C524.744 568.917 524.561 569.742 524.561 570.695V580.925C524.561 581.878 524.744 582.722 525.111 583.455C525.514 584.152 526.046 584.757 526.706 585.27C527.366 585.747 528.136 586.113 529.016 586.37C529.896 586.627 530.831 586.755 531.821 586.755ZM564.744 590.66C561.774 590.66 559.207 590.165 557.044 589.175C554.917 588.148 553.102 586.792 551.599 585.105L554.569 582.52C555.926 583.95 557.411 585.05 559.024 585.82C560.637 586.59 562.581 586.975 564.854 586.975C567.054 586.975 568.851 586.59 570.244 585.82C571.674 585.013 572.389 583.767 572.389 582.08C572.389 581.347 572.242 580.742 571.949 580.265C571.692 579.752 571.326 579.348 570.849 579.055C570.372 578.762 569.841 578.542 569.254 578.395C568.667 578.212 568.044 578.065 567.384 577.955L562.929 577.295C561.939 577.148 560.857 576.947 559.684 576.69C558.547 576.433 557.502 576.03 556.549 575.48C555.596 574.893 554.789 574.123 554.129 573.17C553.506 572.217 553.194 570.97 553.194 569.43C553.194 568 553.469 566.772 554.019 565.745C554.606 564.682 555.412 563.802 556.439 563.105C557.466 562.372 558.676 561.84 560.069 561.51C561.462 561.143 562.984 560.96 564.634 560.96C567.201 560.96 569.419 561.363 571.289 562.17C573.196 562.977 574.827 564.095 576.184 565.525L573.324 568.22C572.994 567.817 572.572 567.413 572.059 567.01C571.582 566.57 570.977 566.185 570.244 565.855C569.547 565.488 568.722 565.195 567.769 564.975C566.816 564.755 565.716 564.645 564.469 564.645C562.232 564.645 560.509 565.03 559.299 565.8C558.126 566.57 557.539 567.688 557.539 569.155C557.539 569.888 557.667 570.512 557.924 571.025C558.217 571.502 558.602 571.887 559.079 572.18C559.556 572.473 560.087 572.712 560.674 572.895C561.297 573.042 561.921 573.17 562.544 573.28L566.999 573.94C568.026 574.087 569.107 574.288 570.244 574.545C571.381 574.802 572.426 575.223 573.379 575.81C574.332 576.36 575.121 577.112 575.744 578.065C576.404 579.018 576.734 580.265 576.734 581.805C576.734 584.628 575.634 586.81 573.434 588.35C571.271 589.89 568.374 590.66 564.744 590.66ZM597.393 590.495C595.889 590.495 594.826 590.183 594.203 589.56C593.616 588.937 593.323 588.148 593.323 587.195V586.205C593.323 585.252 593.616 584.463 594.203 583.84C594.826 583.217 595.889 582.905 597.393 582.905C598.896 582.905 599.941 583.217 600.528 583.84C601.151 584.463 601.463 585.252 601.463 586.205V587.195C601.463 588.148 601.151 588.937 600.528 589.56C599.941 590.183 598.896 590.495 597.393 590.495ZM597.393 568.715C595.889 568.715 594.826 568.403 594.203 567.78C593.616 567.157 593.323 566.368 593.323 565.415V564.425C593.323 563.472 593.616 562.683 594.203 562.06C594.826 561.437 595.889 561.125 597.393 561.125C598.896 561.125 599.941 561.437 600.528 562.06C601.151 562.683 601.463 563.472 601.463 564.425V565.415C601.463 566.368 601.151 567.157 600.528 567.78C599.941 568.403 598.896 568.715 597.393 568.715ZM618.821 597.59L637.961 548.2H641.921L622.781 597.59H618.821ZM651.8 597.59L670.94 548.2H674.9L655.76 597.59H651.8ZM681.478 561.62H685.383L688.628 586.15H689.123L693.963 561.62H698.803L703.643 586.15H704.138L707.383 561.62H711.178L706.833 590H701.113L696.603 566.24H696.163L691.543 590H685.823L681.478 561.62ZM740.032 590C738.308 590 737.08 589.56 736.347 588.68C735.613 587.8 735.155 586.7 734.972 585.38H734.697C734.073 587.03 733.065 588.332 731.672 589.285C730.315 590.202 728.482 590.66 726.172 590.66C723.202 590.66 720.837 589.89 719.077 588.35C717.317 586.81 716.437 584.702 716.437 582.025C716.437 579.385 717.39 577.35 719.297 575.92C721.24 574.49 724.357 573.775 728.647 573.775H734.697V570.97C734.697 568.88 734.11 567.322 732.937 566.295C731.763 565.232 730.095 564.7 727.932 564.7C726.025 564.7 724.467 565.085 723.257 565.855C722.047 566.588 721.075 567.597 720.342 568.88L717.372 566.68C717.738 565.947 718.233 565.232 718.857 564.535C719.48 563.838 720.25 563.233 721.167 562.72C722.083 562.17 723.128 561.748 724.302 561.455C725.475 561.125 726.777 560.96 728.207 560.96C731.543 560.96 734.183 561.803 736.127 563.49C738.107 565.177 739.097 567.523 739.097 570.53V586.15H743.057V590H740.032ZM726.942 586.975C728.078 586.975 729.105 586.847 730.022 586.59C730.975 586.297 731.8 585.93 732.497 585.49C733.193 585.013 733.725 584.463 734.092 583.84C734.495 583.18 734.697 582.483 734.697 581.75V577.075H728.647C726.007 577.075 724.082 577.442 722.872 578.175C721.662 578.908 721.057 579.972 721.057 581.365V582.52C721.057 583.987 721.57 585.105 722.597 585.875C723.66 586.608 725.108 586.975 726.942 586.975ZM751.175 590V561.62H755.575V566.24H755.795C756.088 565.543 756.455 564.883 756.895 564.26C757.335 563.6 757.867 563.032 758.49 562.555C759.15 562.078 759.92 561.693 760.8 561.4C761.68 561.107 762.707 560.96 763.88 560.96C766.85 560.96 769.233 561.913 771.03 563.82C772.827 565.69 773.725 568.348 773.725 571.795V590H769.325V572.565C769.325 569.962 768.757 568.037 767.62 566.79C766.483 565.507 764.815 564.865 762.615 564.865C761.735 564.865 760.873 564.975 760.03 565.195C759.187 565.415 758.435 565.745 757.775 566.185C757.115 566.625 756.583 567.193 756.18 567.89C755.777 568.587 755.575 569.393 755.575 570.31V590H751.175ZM784.154 590V561.62H788.554V566.24H788.774C789.067 565.543 789.434 564.883 789.874 564.26C790.314 563.6 790.845 563.032 791.469 562.555C792.129 562.078 792.899 561.693 793.779 561.4C794.659 561.107 795.685 560.96 796.859 560.96C799.829 560.96 802.212 561.913 804.009 563.82C805.805 565.69 806.704 568.348 806.704 571.795V590H802.304V572.565C802.304 569.962 801.735 568.037 800.599 566.79C799.462 565.507 797.794 564.865 795.594 564.865C794.714 564.865 793.852 564.975 793.009 565.195C792.165 565.415 791.414 565.745 790.754 566.185C790.094 566.625 789.562 567.193 789.159 567.89C788.755 568.587 788.554 569.393 788.554 570.31V590H784.154ZM828.737 590.66C826.684 590.66 824.832 590.312 823.182 589.615C821.569 588.918 820.176 587.928 819.002 586.645C817.866 585.325 816.986 583.767 816.362 581.97C815.739 580.137 815.427 578.102 815.427 575.865C815.427 573.592 815.739 571.538 816.362 569.705C817.022 567.872 817.921 566.313 819.057 565.03C820.194 563.71 821.551 562.702 823.127 562.005C824.741 561.308 826.519 560.96 828.462 560.96C830.369 560.96 832.092 561.308 833.632 562.005C835.209 562.702 836.547 563.673 837.647 564.92C838.747 566.13 839.591 567.578 840.177 569.265C840.764 570.952 841.057 572.803 841.057 574.82V576.91H820.047V578.23C820.047 579.477 820.249 580.632 820.652 581.695C821.056 582.758 821.624 583.675 822.357 584.445C823.127 585.215 824.044 585.82 825.107 586.26C826.207 586.663 827.417 586.865 828.737 586.865C830.644 586.865 832.294 586.425 833.687 585.545C835.081 584.665 836.144 583.455 836.877 581.915L840.122 584.115C839.279 586.022 837.867 587.598 835.887 588.845C833.944 590.055 831.561 590.66 828.737 590.66ZM828.462 564.59C827.252 564.59 826.134 564.81 825.107 565.25C824.081 565.69 823.182 566.295 822.412 567.065C821.679 567.835 821.092 568.752 820.652 569.815C820.249 570.842 820.047 571.978 820.047 573.225V573.61H836.327V573.005C836.327 571.758 836.126 570.622 835.722 569.595C835.356 568.568 834.824 567.688 834.127 566.955C833.467 566.185 832.642 565.598 831.652 565.195C830.699 564.792 829.636 564.59 828.462 564.59ZM848.956 586.26H857.261V565.36H848.956V561.62H861.661V568.77H861.936C862.522 566.533 863.622 564.792 865.236 563.545C866.886 562.262 868.976 561.62 871.506 561.62H875.466V566.02H870.131C867.601 566.02 865.547 566.753 863.971 568.22C862.431 569.687 861.661 571.612 861.661 573.995V586.26H872.661V590H848.956V586.26ZM894.199 590.495C892.696 590.495 891.633 590.183 891.009 589.56C890.423 588.937 890.129 588.148 890.129 587.195V586.205C890.129 585.252 890.423 584.463 891.009 583.84C891.633 583.217 892.696 582.905 894.199 582.905C895.703 582.905 896.748 583.217 897.334 583.84C897.958 584.463 898.269 585.252 898.269 586.205V587.195C898.269 588.148 897.958 588.937 897.334 589.56C896.748 590.183 895.703 590.495 894.199 590.495ZM912.328 561.62H916.233L919.478 586.15H919.973L924.813 561.62H929.653L934.493 586.15H934.988L938.233 561.62H942.028L937.683 590H931.963L927.453 566.24H927.013L922.393 590H916.673L912.328 561.62ZM960.156 590.66C958.176 590.66 956.38 590.312 954.766 589.615C953.19 588.918 951.833 587.928 950.696 586.645C949.596 585.325 948.753 583.767 948.166 581.97C947.58 580.137 947.286 578.083 947.286 575.81C947.286 573.573 947.58 571.538 948.166 569.705C948.753 567.872 949.596 566.313 950.696 565.03C951.833 563.71 953.19 562.702 954.766 562.005C956.38 561.308 958.176 560.96 960.156 560.96C962.136 560.96 963.915 561.308 965.491 562.005C967.105 562.702 968.461 563.71 969.561 565.03C970.698 566.313 971.56 567.872 972.146 569.705C972.733 571.538 973.026 573.573 973.026 575.81C973.026 578.083 972.733 580.137 972.146 581.97C971.56 583.767 970.698 585.325 969.561 586.645C968.461 587.928 967.105 588.918 965.491 589.615C963.915 590.312 962.136 590.66 960.156 590.66ZM960.156 586.865C962.613 586.865 964.593 586.132 966.096 584.665C967.6 583.198 968.351 580.925 968.351 577.845V573.775C968.351 570.695 967.6 568.422 966.096 566.955C964.593 565.488 962.613 564.755 960.156 564.755C957.7 564.755 955.72 565.488 954.216 566.955C952.713 568.422 951.961 570.695 951.961 573.775V577.845C951.961 580.925 952.713 583.198 954.216 584.665C955.72 586.132 957.7 586.865 960.156 586.865ZM980.87 586.26H989.175V565.36H980.87V561.62H993.575V568.77H993.85C994.436 566.533 995.536 564.792 997.15 563.545C998.8 562.262 1000.89 561.62 1003.42 561.62H1007.38V566.02H1002.04C999.515 566.02 997.461 566.753 995.885 568.22C994.345 569.687 993.575 571.612 993.575 573.995V586.26H1004.57V590H980.87V586.26ZM1015.39 549.3H1019.79V574.985H1020.01L1024.96 570.31L1034.42 561.62H1039.81L1028.04 572.73L1041.18 590H1035.74L1024.68 575.26L1019.79 579.715V590H1015.39V549.3Z" fill="#E8DFCB"/>
<rect x="330" y="673" width="1215" height="240" fill="url(#paint0_linear_2046_2)"/>
<rect x="378" y="508" width="703" height="145" fill="url(#paint1_linear_2046_2)"/>
<g clip-path="url(#clip0_2046_2)">
<path d="M2634 523H2782.19L2956 862.675L2878.01 1003L2634 523Z" fill="#2B2927"/>
<path d="M2923 523H3071.19L3245 862.675L3167.01 1003L2923 523Z" fill="#2B2927"/>
<path d="M3225 523H3434L3331.45 708L3334.79 578.723L3225 523Z" fill="#2B2927"/>
<rect x="2634" y="523" width="800" height="480" fill="url(#paint2_linear_2046_2)"/>
</g>
<defs>
<linearGradient id="paint0_linear_2046_2" x1="411.604" y1="673" x2="1057.68" y2="1389.21" gradientUnits="userSpaceOnUse">
<stop stop-color="#E8DFCB" stop-opacity="0.4"/>
<stop offset="1" stop-color="#E8DFCB" stop-opacity="0"/>
</linearGradient>
<linearGradient id="paint1_linear_2046_2" x1="425.216" y1="508" x2="816.928" y2="923.858" gradientUnits="userSpaceOnUse">
<stop stop-color="#E8DFCB" stop-opacity="0.4"/>
<stop offset="1" stop-color="#E8DFCB" stop-opacity="0"/>
</linearGradient>
<linearGradient id="paint2_linear_2046_2" x1="2687.73" y1="523" x2="3524.46" y2="828.368" gradientUnits="userSpaceOnUse">
<stop stop-color="#E8DFCB" stop-opacity="0.4"/>
<stop offset="1" stop-color="#E8DFCB" stop-opacity="0"/>
</linearGradient>
<clipPath id="clip0_2046_2">
<rect width="800" height="480" fill="white" transform="translate(2634 523)"/>
</clipPath>
</defs>
</svg>
